<?xml version="1.0"?>
<svg xmlns="http://www.w3.org/2000/svg" version="1.2" baseProfile="tiny" width="800" height="974" viewBox="0 0 800 974" stroke-linecap="round" stroke-linejoin="round">
<g id="대구광역시_시군구_경계">
<path d="M 326.95 629.59 L 339.27 634.46 L 341.29 634.28 L 346.55 633.82 L 356.72 634.00 L 356.85 634.01 L 358.73 634.19 L 361.77 635.37 L 365.46 635.56 L 367.64 635.67 L 368.71 635.69 L 376.89 636.07 L 377.47 636.94 L 377.56 637.30 L 377.61 637.51 L 377.66 637.71 L 377.68 637.82 L 377.69 637.91 L 377.70 638.27 L 377.70 638.40 L 377.69 638.96 L 377.68 639.40 L 377.68 639.44 L 376.92 643.82 L 376.76 649.81 L 376.12 652.15 L 376.09 652.30 L 376.00 652.80 L 376.01 653.63 L 376.03 653.91 L 376.06 654.23 L 376.03 654.52 L 376.02 654.62 L 376.00 654.89 L 375.87 655.99 L 375.85 656.19 L 375.82 656.31 L 375.66 656.85 L 375.47 657.17 L 375.27 657.40 L 374.39 658.07 L 373.47 662.50 L 374.16 666.37 L 374.29 666.92 L 375.28 669.37 L 376.39 672.45 L 376.50 673.63 L 375.29 673.58 L 374.23 673.54 L 373.30 673.59 L 372.51 674.07 L 372.04 676.05 L 371.53 678.40 L 371.37 679.72 L 366.42 689.12 L 365.19 690.36 L 362.74 691.04 L 361.22 691.43 L 360.98 691.48 L 360.29 691.64 L 357.04 692.72 L 354.15 695.21 L 352.96 697.91 L 347.55 700.12 L 342.20 700.81 L 341.68 700.59 L 340.95 698.14 L 339.20 695.33 L 338.36 694.31 L 335.81 694.71 L 334.97 694.34 L 332.00 691.57 L 329.53 688.66 L 322.16 684.47 L 322.59 682.79 L 322.47 681.42 L 322.42 680.93 L 321.69 679.90 L 319.97 677.88 L 318.85 677.04 L 316.94 679.01 L 311.21 678.07 L 310.74 677.92 L 309.48 676.31 L 307.97 673.83 L 307.80 673.54 L 307.38 672.77 L 307.32 672.61 L 307.61 672.56 L 307.36 671.89 L 306.38 670.30 L 305.74 669.46 L 303.17 666.41 L 302.37 665.77 L 302.11 665.61 L 301.92 665.50 L 301.82 665.44 L 301.16 665.10 L 300.95 665.00 L 299.29 664.39 L 302.52 660.00 L 302.20 660.02 L 307.16 654.01 L 307.98 653.01 L 308.14 652.81 L 308.49 652.39 L 308.70 652.14 L 308.87 651.99 L 308.91 651.95 L 311.12 650.30 L 311.41 650.09 L 311.81 649.79 L 311.87 649.75 L 312.63 649.19 L 313.24 648.75 L 321.94 643.76 L 323.18 643.05 L 325.37 641.83 L 325.71 641.48 L 326.78 629.52 L 326.95 629.59 Z" id="남구"/>
<path d="M 192.11 690.72 L 192.11 690.74 L 192.08 690.73 L 192.11 690.72 Z M 192.11 690.72 L 192.16 690.18 L 192.38 687.70 L 192.41 687.38 L 192.45 686.15 L 192.52 684.00 L 192.53 683.15 L 192.49 682.65 L 192.34 680.63 L 192.18 679.68 L 192.04 678.82 L 191.54 676.59 L 190.87 675.13 L 190.79 674.95 L 190.01 672.89 L 189.43 671.02 L 180.82 668.36 L 179.48 667.95 L 179.15 667.84 L 177.71 667.00 L 177.11 666.64 L 176.75 666.42 L 170.97 659.91 L 171.23 658.38 L 171.94 655.35 L 172.27 654.19 L 173.14 651.89 L 173.91 649.89 L 174.26 648.47 L 174.46 647.14 L 175.33 641.23 L 175.72 638.36 L 176.15 636.75 L 177.03 633.44 L 178.49 633.28 L 180.54 631.77 L 181.61 630.53 L 182.19 628.71 L 182.22 628.64 L 182.44 628.21 L 182.52 628.03 L 186.51 622.39 L 186.84 622.09 L 189.71 619.50 L 191.64 620.24 L 192.71 620.12 L 192.77 620.11 L 193.63 619.98 L 194.54 619.83 L 196.02 619.69 L 196.23 619.68 L 197.09 619.68 L 197.73 619.89 L 197.93 619.95 L 198.56 620.27 L 198.61 620.30 L 202.47 622.20 L 206.96 624.29 L 209.17 624.30 L 214.28 624.98 L 214.39 625.00 L 216.59 625.51 L 217.60 625.83 L 218.33 625.86 L 218.35 625.86 L 218.53 625.73 L 219.50 624.96 L 219.87 624.45 L 219.83 623.97 L 221.91 622.74 L 226.44 622.25 L 227.95 622.44 L 228.19 622.35 L 228.80 621.94 L 229.00 621.63 L 229.16 621.38 L 230.11 619.89 L 230.31 618.66 L 230.48 617.83 L 230.59 617.45 L 234.81 619.39 L 240.01 619.85 L 244.90 617.54 L 249.04 620.32 L 250.86 620.23 L 251.24 620.27 L 253.35 620.58 L 257.18 623.60 L 257.64 624.01 L 255.89 625.85 L 255.94 625.99 L 257.18 627.72 L 257.23 627.75 L 257.55 627.94 L 259.17 627.97 L 259.99 627.98 L 261.60 628.00 L 262.14 628.01 L 262.86 628.01 L 263.09 628.01 L 265.33 627.97 L 266.41 629.46 L 265.98 631.78 L 275.87 631.75 L 276.40 634.07 L 278.93 634.97 L 281.28 635.68 L 281.30 635.68 L 283.44 635.27 L 287.90 637.42 L 287.96 637.62 L 296.63 634.49 L 301.63 632.73 L 303.25 632.20 L 303.42 632.15 L 303.67 632.08 L 315.42 628.74 L 316.95 628.43 L 326.32 626.10 L 326.63 628.02 L 326.78 629.52 L 325.71 641.48 L 325.37 641.83 L 323.18 643.05 L 321.94 643.76 L 313.24 648.75 L 312.63 649.19 L 311.87 649.75 L 311.81 649.79 L 311.41 650.09 L 311.12 650.30 L 308.91 651.95 L 308.87 651.99 L 308.70 652.14 L 308.49 652.39 L 308.14 652.81 L 307.98 653.01 L 307.16 654.01 L 302.20 660.02 L 302.52 660.00 L 299.29 664.39 L 300.95 665.00 L 301.16 665.10 L 301.82 665.44 L 301.92 665.50 L 302.11 665.61 L 302.37 665.77 L 303.17 666.41 L 305.74 669.46 L 306.38 670.30 L 307.36 671.89 L 307.61 672.56 L 307.32 672.61 L 307.38 672.77 L 307.80 673.54 L 307.97 673.83 L 309.48 676.31 L 310.74 677.92 L 311.21 678.07 L 316.94 679.01 L 318.85 677.04 L 319.97 677.88 L 321.69 679.90 L 322.42 680.93 L 322.47 681.42 L 322.59 682.79 L 322.16 684.47 L 329.53 688.66 L 332.00 691.57 L 334.97 694.34 L 335.81 694.71 L 338.36 694.31 L 339.20 695.33 L 340.95 698.14 L 341.68 700.59 L 342.20 700.81 L 347.55 700.12 L 345.89 703.71 L 345.34 704.43 L 344.23 706.61 L 344.73 707.88 L 345.66 709.22 L 345.60 709.61 L 345.49 710.27 L 345.43 710.61 L 344.49 711.44 L 343.93 711.93 L 337.56 713.21 L 336.65 714.16 L 335.13 715.21 L 334.10 715.75 L 331.00 716.12 L 328.79 715.99 L 326.18 715.36 L 324.72 714.90 L 320.49 714.22 L 317.39 717.08 L 317.01 717.44 L 316.99 717.46 L 318.96 721.32 L 319.69 724.03 L 320.64 729.15 L 320.55 733.24 L 320.60 733.81 L 321.41 735.05 L 322.06 735.99 L 322.19 737.83 L 314.84 745.10 L 314.57 745.26 L 312.60 746.06 L 311.59 745.73 L 310.90 745.51 L 309.94 745.47 L 306.48 745.91 L 304.92 746.36 L 303.80 746.95 L 303.31 747.20 L 303.17 747.28 L 301.46 747.35 L 298.98 747.42 L 298.90 747.33 L 298.65 747.04 L 298.29 745.58 L 297.25 741.24 L 295.27 738.86 L 294.77 738.76 L 292.44 738.31 L 290.61 737.49 L 290.02 736.91 L 287.42 733.68 L 287.23 733.38 L 287.01 733.03 L 286.83 732.60 L 286.19 730.92 L 284.02 729.36 L 282.29 728.82 L 280.21 727.80 L 279.45 727.03 L 279.37 726.00 L 279.29 724.75 L 277.55 726.89 L 274.33 728.72 L 273.03 728.97 L 271.51 729.02 L 267.24 729.16 L 263.53 728.22 L 260.74 727.19 L 259.68 724.02 L 258.87 721.13 L 258.48 720.74 L 258.17 720.74 L 256.51 720.73 L 251.78 719.54 L 245.54 714.98 L 244.85 714.42 L 244.36 714.03 L 243.66 713.42 L 242.53 712.12 L 240.73 708.94 L 239.67 706.43 L 239.29 703.52 L 238.88 703.54 L 237.90 703.58 L 236.61 703.75 L 236.58 703.77 L 233.95 703.85 L 230.24 703.67 L 229.47 703.05 L 230.24 700.82 L 230.46 700.66 L 230.79 700.55 L 231.04 700.47 L 231.43 700.38 L 231.50 700.37 L 231.58 700.35 L 233.07 699.89 L 234.23 699.51 L 234.45 699.43 L 237.52 698.00 L 236.40 696.36 L 234.44 695.47 L 234.06 695.32 L 232.80 694.85 L 231.78 694.53 L 231.27 694.47 L 227.75 692.53 L 226.73 691.30 L 221.56 688.74 L 221.09 688.51 L 220.18 688.11 L 220.02 688.04 L 219.91 688.00 L 219.44 687.83 L 218.57 687.52 L 217.65 687.24 L 215.23 686.73 L 209.39 685.75 L 206.67 685.35 L 202.85 684.56 L 197.75 687.30 L 193.77 689.65 L 192.11 690.72 Z" id="달서구"/>
<path d="M 221.56 688.74 L 226.73 691.30 L 227.75 692.53 L 231.27 694.47 L 231.78 694.53 L 232.80 694.85 L 234.06 695.32 L 234.44 695.47 L 236.40 696.36 L 237.52 698.00 L 234.45 699.43 L 234.23 699.51 L 233.07 699.89 L 231.58 700.35 L 231.50 700.37 L 231.43 700.38 L 231.04 700.47 L 230.79 700.55 L 230.46 700.66 L 230.24 700.82 L 229.47 703.05 L 230.24 703.67 L 233.95 703.85 L 236.58 703.77 L 236.61 703.75 L 237.90 703.58 L 238.88 703.54 L 239.29 703.52 L 239.67 706.43 L 240.73 708.94 L 242.53 712.12 L 243.66 713.42 L 244.36 714.03 L 244.85 714.42 L 245.54 714.98 L 251.78 719.54 L 256.51 720.73 L 258.17 720.74 L 258.48 720.74 L 258.87 721.13 L 259.68 724.02 L 260.74 727.19 L 263.53 728.22 L 267.24 729.16 L 271.51 729.02 L 273.03 728.97 L 274.33 728.72 L 277.55 726.89 L 279.29 724.75 L 279.37 726.00 L 279.45 727.03 L 280.21 727.80 L 282.29 728.82 L 284.02 729.36 L 286.19 730.92 L 286.83 732.60 L 287.01 733.03 L 287.23 733.38 L 287.42 733.68 L 290.02 736.91 L 290.61 737.49 L 292.44 738.31 L 294.77 738.76 L 295.27 738.86 L 297.25 741.24 L 298.29 745.58 L 298.65 747.04 L 298.90 747.33 L 298.98 747.42 L 301.46 747.35 L 303.17 747.28 L 303.31 747.20 L 303.80 746.95 L 304.92 746.36 L 306.48 745.91 L 309.94 745.47 L 310.90 745.51 L 311.59 745.73 L 312.60 746.06 L 314.57 745.26 L 314.84 745.10 L 322.19 737.83 L 322.06 735.99 L 321.41 735.05 L 320.60 733.81 L 320.55 733.24 L 320.64 729.15 L 319.69 724.03 L 318.96 721.32 L 316.99 717.46 L 317.01 717.44 L 317.39 717.08 L 320.49 714.22 L 324.72 714.90 L 326.18 715.36 L 328.79 715.99 L 331.00 716.12 L 334.10 715.75 L 335.13 715.21 L 336.65 714.16 L 337.56 713.21 L 343.93 711.93 L 344.49 711.44 L 345.43 710.61 L 345.49 710.27 L 345.60 709.61 L 345.66 709.22 L 344.73 707.88 L 344.23 706.61 L 345.34 704.43 L 345.89 703.71 L 347.55 700.12 L 352.96 697.91 L 354.26 698.26 L 361.35 701.28 L 362.00 702.27 L 366.54 702.11 L 367.80 701.92 L 369.16 701.79 L 370.60 702.10 L 370.77 702.13 L 372.56 702.58 L 378.66 703.85 L 389.88 705.29 L 396.83 702.25 L 399.74 702.12 L 403.08 702.81 L 403.76 702.95 L 404.56 703.20 L 404.83 703.32 L 405.16 703.49 L 406.76 704.87 L 408.27 706.15 L 408.75 706.53 L 411.51 705.65 L 411.51 705.64 L 412.44 705.28 L 414.89 705.00 L 416.69 704.91 L 421.40 705.09 L 425.22 705.98 L 426.17 706.73 L 428.81 706.92 L 431.78 706.76 L 434.60 706.39 L 438.91 705.73 L 441.49 705.86 L 442.43 708.84 L 443.36 709.91 L 444.81 710.65 L 449.54 711.52 L 455.30 711.54 L 456.22 711.56 L 458.19 711.70 L 461.10 712.35 L 466.99 713.71 L 467.67 714.41 L 467.99 714.76 L 473.36 715.79 L 476.55 715.90 L 479.10 717.73 L 482.15 718.72 L 486.17 721.69 L 487.89 722.60 L 486.36 728.37 L 486.37 729.51 L 486.48 730.14 L 486.64 730.94 L 487.04 732.03 L 487.09 732.14 L 488.79 734.93 L 490.26 736.84 L 491.74 738.63 L 492.59 738.87 L 492.94 738.92 L 493.35 738.87 L 494.02 739.71 L 494.84 742.02 L 495.17 744.56 L 495.00 745.40 L 494.98 745.50 L 494.86 745.86 L 494.12 747.14 L 493.61 748.08 L 493.69 750.07 L 494.05 751.46 L 494.21 751.72 L 494.78 752.09 L 495.11 752.26 L 495.11 752.25 L 495.20 752.19 L 497.42 752.37 L 498.05 752.95 L 498.59 753.56 L 501.48 757.37 L 501.67 757.84 L 501.72 758.68 L 501.75 759.05 L 501.76 759.47 L 503.46 764.13 L 504.39 764.65 L 505.89 765.64 L 506.81 766.47 L 507.11 766.80 L 507.43 767.34 L 507.85 768.86 L 507.25 769.45 L 506.76 769.76 L 506.68 769.98 L 506.18 771.68 L 506.14 774.14 L 506.02 775.89 L 505.91 776.75 L 505.48 777.66 L 505.25 778.03 L 504.75 778.28 L 504.10 778.60 L 503.99 778.66 L 503.54 781.11 L 504.00 782.78 L 505.41 785.21 L 503.15 787.08 L 500.26 789.25 L 499.02 789.95 L 498.79 790.52 L 498.76 792.76 L 500.56 794.23 L 502.22 795.37 L 503.06 796.52 L 503.19 799.27 L 501.99 801.87 L 501.71 802.49 L 501.11 803.06 L 500.53 803.48 L 497.20 805.59 L 494.26 806.88 L 492.97 807.71 L 490.25 809.76 L 490.17 810.12 L 490.22 810.91 L 490.48 812.94 L 490.74 813.63 L 490.89 814.09 L 490.91 814.24 L 490.90 814.88 L 490.49 815.33 L 485.10 816.08 L 484.98 816.08 L 483.15 815.98 L 482.60 815.87 L 478.44 815.77 L 475.87 816.07 L 473.54 816.74 L 473.43 816.92 L 472.38 818.86 L 472.36 818.91 L 472.33 818.95 L 471.95 819.00 L 465.47 818.51 L 461.34 816.88 L 456.49 818.39 L 451.17 820.54 L 449.74 822.54 L 449.42 823.13 L 448.99 824.06 L 447.44 825.28 L 446.58 825.95 L 437.48 829.26 L 436.79 831.87 L 436.73 832.08 L 435.99 833.75 L 431.99 835.37 L 427.23 836.49 L 424.25 837.07 L 422.58 837.09 L 421.99 836.65 L 419.50 836.39 L 413.40 835.81 L 412.77 835.98 L 407.17 838.67 L 403.96 840.54 L 403.24 841.97 L 396.98 841.28 L 396.96 839.04 L 395.36 838.08 L 394.66 837.74 L 393.48 837.02 L 388.16 831.91 L 388.05 831.48 L 388.02 827.19 L 388.13 826.06 L 388.56 825.59 L 388.61 825.53 L 389.04 825.23 L 389.71 824.77 L 390.57 824.17 L 392.10 823.05 L 392.41 822.45 L 392.46 821.35 L 391.29 818.74 L 390.77 817.94 L 389.90 817.00 L 388.12 815.33 L 386.11 814.84 L 386.04 814.82 L 381.96 811.66 L 381.93 811.22 L 381.92 811.05 L 382.19 809.85 L 384.81 807.40 L 385.95 806.54 L 387.59 805.82 L 388.69 805.19 L 389.24 804.24 L 389.14 803.81 L 389.03 803.40 L 388.69 802.90 L 388.17 802.34 L 387.44 801.40 L 387.96 799.37 L 387.57 795.38 L 385.72 793.54 L 385.52 793.34 L 385.38 793.20 L 380.58 792.71 L 380.55 792.71 L 380.44 792.70 L 378.07 792.61 L 376.07 793.87 L 374.59 794.60 L 371.00 795.74 L 368.52 795.90 L 366.27 795.98 L 363.81 795.71 L 360.54 795.17 L 359.91 795.18 L 358.50 795.37 L 357.91 796.30 L 358.34 797.44 L 355.51 801.37 L 354.31 801.92 L 351.75 802.96 L 351.52 802.85 L 351.06 802.62 L 345.10 798.90 L 344.47 797.93 L 344.34 797.73 L 343.33 796.42 L 342.18 795.07 L 340.98 793.82 L 338.17 793.39 L 332.20 795.95 L 328.30 797.68 L 325.25 799.03 L 323.94 799.09 L 319.73 797.71 L 319.19 796.93 L 317.68 795.88 L 314.91 796.15 L 313.56 797.00 L 313.12 797.37 L 312.84 798.36 L 312.37 800.10 L 310.24 804.47 L 309.45 805.72 L 307.55 806.83 L 303.55 808.48 L 302.67 808.73 L 300.29 808.81 L 297.61 809.93 L 296.71 810.36 L 289.71 814.33 L 288.33 815.34 L 286.66 817.54 L 284.65 819.80 L 283.72 820.01 L 282.62 820.26 L 281.49 820.46 L 276.16 821.80 L 268.76 823.93 L 260.84 829.03 L 261.05 829.32 L 261.79 830.32 L 262.10 830.73 L 262.49 831.00 L 263.00 831.35 L 263.93 832.30 L 264.03 832.40 L 264.83 833.51 L 265.72 835.97 L 269.17 840.94 L 269.87 841.76 L 268.04 845.22 L 267.00 850.76 L 270.51 853.16 L 271.99 854.23 L 269.97 857.65 L 268.48 859.55 L 266.37 862.59 L 266.47 864.35 L 266.56 865.84 L 266.62 866.08 L 266.98 867.85 L 267.16 868.69 L 264.28 869.15 L 261.43 868.98 L 255.92 870.82 L 252.40 872.08 L 247.05 874.12 L 244.13 877.16 L 244.09 877.50 L 242.15 879.58 L 240.09 880.07 L 236.59 880.68 L 234.38 880.60 L 234.25 880.59 L 233.24 881.10 L 232.51 881.79 L 231.90 882.50 L 231.46 883.12 L 231.42 883.32 L 231.29 883.90 L 231.60 884.50 L 231.86 885.01 L 232.74 885.96 L 233.46 886.72 L 233.63 886.90 L 233.73 887.27 L 233.94 888.26 L 233.97 893.10 L 232.79 894.81 L 232.34 895.45 L 232.49 897.76 L 232.32 902.52 L 232.12 903.63 L 231.22 906.70 L 230.80 911.00 L 230.80 913.57 L 230.80 913.79 L 232.53 914.74 L 232.98 914.98 L 234.28 916.29 L 236.48 918.58 L 236.58 918.88 L 236.65 919.77 L 236.60 920.23 L 235.48 923.40 L 235.38 923.51 L 234.79 924.08 L 233.06 925.66 L 231.65 926.89 L 230.14 928.10 L 229.36 928.49 L 228.54 928.77 L 228.09 928.90 L 226.54 929.18 L 224.98 929.25 L 224.14 929.22 L 221.83 928.98 L 220.36 928.88 L 214.53 928.92 L 214.40 929.03 L 214.20 929.30 L 208.53 931.61 L 203.52 933.20 L 195.83 934.46 L 195.38 934.53 L 194.79 934.54 L 194.58 934.50 L 194.18 934.40 L 193.34 934.18 L 192.81 932.92 L 192.35 931.65 L 192.34 931.26 L 192.34 931.13 L 192.31 930.55 L 192.17 929.58 L 192.11 929.20 L 191.45 928.17 L 190.55 927.55 L 190.47 927.50 L 189.67 927.28 L 189.03 927.10 L 187.20 927.13 L 186.81 927.19 L 186.06 927.40 L 185.62 927.56 L 184.83 928.20 L 184.61 928.39 L 182.94 929.77 L 178.10 932.24 L 177.55 932.47 L 175.72 932.48 L 170.99 932.34 L 170.21 931.97 L 169.74 931.74 L 166.54 930.11 L 165.87 929.75 L 162.15 927.22 L 162.03 927.23 L 161.40 927.34 L 160.98 927.42 L 159.86 927.71 L 159.31 927.95 L 157.97 928.54 L 157.92 928.58 L 157.88 928.63 L 157.85 928.68 L 157.84 928.80 L 157.96 929.22 L 157.96 929.43 L 157.83 929.87 L 157.73 930.09 L 156.49 931.55 L 151.64 932.28 L 150.54 932.19 L 147.45 931.24 L 144.46 931.22 L 142.96 930.48 L 142.67 930.37 L 142.36 930.30 L 142.16 930.27 L 141.97 930.26 L 141.65 930.30 L 141.57 930.39 L 141.50 930.48 L 140.63 932.62 L 133.80 936.62 L 134.12 937.90 L 134.10 938.27 L 132.87 940.93 L 131.98 941.15 L 131.58 941.24 L 130.50 941.31 L 130.17 941.19 L 129.02 940.73 L 128.79 940.80 L 128.66 940.84 L 127.86 941.57 L 121.79 948.74 L 120.23 951.04 L 120.05 951.61 L 119.01 953.11 L 118.99 953.12 L 117.21 952.68 L 115.78 951.73 L 114.26 950.73 L 111.23 948.77 L 110.62 948.41 L 110.39 948.31 L 109.60 948.09 L 107.27 948.39 L 107.03 948.43 L 106.77 948.52 L 106.66 948.59 L 106.38 948.83 L 106.02 949.17 L 105.50 949.74 L 105.23 950.07 L 104.92 950.51 L 103.81 952.23 L 100.77 953.96 L 96.47 955.51 L 95.78 956.97 L 93.79 959.24 L 92.44 960.16 L 83.56 962.88 L 80.32 960.84 L 79.33 959.60 L 79.29 959.57 L 78.42 959.13 L 78.35 959.11 L 72.15 961.17 L 67.96 962.74 L 66.97 963.61 L 66.78 963.50 L 66.19 963.16 L 66.10 963.11 L 58.63 966.04 L 57.03 967.31 L 56.07 968.22 L 55.15 969.07 L 52.88 969.17 L 50.96 969.21 L 50.22 969.42 L 50.19 969.43 L 49.52 969.85 L 49.24 970.93 L 47.31 973.98 L 47.27 974.00 L 40.49 973.67 L 39.53 973.49 L 39.39 973.46 L 32.93 971.52 L 31.15 970.40 L 30.88 970.23 L 30.70 969.99 L 30.55 969.12 L 31.42 968.24 L 32.30 967.36 L 33.87 966.06 L 36.64 965.45 L 37.91 965.18 L 41.25 964.44 L 55.94 958.56 L 56.66 957.90 L 57.34 957.25 L 57.81 956.80 L 63.16 951.33 L 64.05 950.25 L 64.70 949.44 L 66.02 947.81 L 66.79 946.59 L 67.67 945.20 L 74.77 938.45 L 74.86 938.09 L 75.01 937.49 L 75.62 934.96 L 75.76 934.37 L 75.63 933.56 L 75.39 932.19 L 75.24 931.37 L 74.98 929.95 L 72.76 921.14 L 71.77 919.79 L 69.56 916.76 L 62.55 911.63 L 60.47 910.24 L 51.56 905.43 L 47.98 903.51 L 34.98 895.21 L 33.85 894.46 L 32.85 893.78 L 31.66 892.96 L 16.43 880.97 L 14.55 878.86 L 13.67 877.86 L 12.84 876.93 L 10.62 874.34 L 10.29 873.96 L 9.90 873.50 L 8.72 872.08 L 8.56 871.83 L 8.34 871.49 L 8.03 870.98 L 6.86 869.12 L 5.84 867.01 L 5.41 866.09 L 4.76 864.73 L 3.39 861.60 L 3.05 860.81 L 2.83 860.33 L 1.54 856.66 L 1.29 855.93 L 1.18 855.52 L 0.92 854.55 L 0.14 851.52 L 0.00 848.86 L 0.32 843.90 L 0.40 842.67 L 1.14 842.02 L 5.60 838.15 L 7.67 837.16 L 9.36 836.50 L 10.81 836.27 L 15.09 836.87 L 17.64 837.43 L 19.87 837.91 L 30.40 841.00 L 34.45 842.52 L 37.60 843.71 L 39.44 844.21 L 43.10 845.18 L 46.20 845.74 L 50.01 845.88 L 52.25 845.97 L 52.90 845.99 L 59.30 846.38 L 61.70 846.64 L 67.45 847.34 L 80.92 850.66 L 89.93 853.11 L 93.39 852.90 L 94.67 852.82 L 100.15 852.29 L 102.14 851.77 L 104.73 851.08 L 105.39 850.80 L 105.81 850.61 L 106.08 850.49 L 106.18 850.43 L 109.49 848.40 L 119.29 840.68 L 120.23 839.80 L 120.63 839.43 L 120.73 839.34 L 120.81 839.24 L 121.10 838.86 L 121.96 837.72 L 122.83 834.74 L 123.15 833.02 L 123.17 831.75 L 123.17 830.53 L 123.18 827.33 L 122.77 825.31 L 121.54 818.50 L 121.32 817.65 L 121.20 817.19 L 121.15 817.09 L 120.80 816.32 L 120.60 815.90 L 120.54 815.76 L 119.51 814.11 L 118.96 813.39 L 118.44 812.72 L 116.52 811.61 L 114.92 810.69 L 113.38 809.78 L 106.62 805.47 L 106.03 804.97 L 105.76 804.75 L 104.85 803.98 L 104.53 803.71 L 95.00 798.64 L 89.83 796.24 L 69.86 787.97 L 66.61 786.83 L 65.61 786.47 L 65.18 786.25 L 61.02 784.10 L 59.52 783.25 L 58.05 782.41 L 56.77 780.98 L 55.99 779.76 L 52.77 775.38 L 49.74 772.41 L 47.42 770.26 L 47.29 770.16 L 46.70 769.58 L 46.32 769.10 L 46.12 768.67 L 46.08 768.11 L 46.11 767.95 L 46.22 767.34 L 46.35 766.64 L 47.69 764.57 L 52.49 757.68 L 55.30 753.21 L 55.79 752.59 L 56.41 751.81 L 57.10 750.95 L 58.14 749.68 L 58.93 748.72 L 59.07 748.60 L 59.60 748.14 L 60.43 747.42 L 61.81 746.27 L 62.67 745.55 L 63.12 745.18 L 63.99 744.47 L 64.32 744.20 L 65.11 743.49 L 65.93 742.74 L 66.92 741.43 L 67.64 740.24 L 67.95 739.71 L 68.46 738.71 L 68.69 738.25 L 69.11 737.09 L 69.26 736.69 L 69.37 736.08 L 69.51 735.26 L 71.37 730.80 L 72.55 728.77 L 74.19 726.00 L 79.49 717.39 L 82.15 713.56 L 84.80 713.40 L 85.73 713.34 L 85.77 712.96 L 85.98 710.99 L 86.53 710.47 L 87.65 709.41 L 88.14 708.95 L 88.47 708.63 L 89.29 708.63 L 90.24 708.62 L 90.33 708.62 L 93.40 708.61 L 93.37 704.56 L 93.36 704.19 L 93.90 704.18 L 97.79 704.17 L 100.02 704.16 L 100.45 704.00 L 100.79 703.85 L 100.79 702.83 L 100.76 700.06 L 100.76 699.73 L 101.09 699.73 L 130.49 699.60 L 130.51 701.67 L 130.52 703.99 L 130.67 704.02 L 143.47 703.97 L 161.47 704.02 L 174.13 703.84 L 174.98 703.64 L 176.40 703.15 L 176.84 702.99 L 178.91 702.16 L 178.69 701.35 L 179.74 698.44 L 184.81 695.23 L 185.04 695.08 L 187.87 692.42 L 189.11 691.26 L 189.51 690.89 L 189.51 690.88 L 189.57 690.83 L 190.36 690.09 L 192.08 690.73 L 193.77 689.65 L 197.75 687.30 L 202.85 684.56 L 206.67 685.35 L 209.39 685.75 L 215.23 686.73 L 217.65 687.24 L 218.57 687.52 L 219.44 687.83 L 219.91 688.00 L 220.02 688.04 L 220.18 688.11 L 221.09 688.51 L 221.56 688.74 Z M 179.77 528.82 L 180.65 530.21 L 180.71 530.70 L 180.89 532.19 L 181.02 533.44 L 180.40 538.62 L 179.66 540.16 L 179.22 541.06 L 177.85 542.87 L 176.70 544.50 L 176.47 544.91 L 176.20 545.54 L 176.28 547.27 L 176.63 552.45 L 177.34 553.23 L 177.05 553.98 L 176.87 554.45 L 175.60 557.27 L 175.36 557.50 L 174.65 558.17 L 172.96 559.63 L 169.71 562.16 L 168.49 562.38 L 166.63 563.06 L 165.66 564.00 L 164.85 565.24 L 165.54 566.16 L 166.85 567.23 L 167.75 568.15 L 167.77 568.20 L 168.16 569.67 L 168.13 572.73 L 168.48 576.52 L 169.41 577.53 L 169.98 577.85 L 170.20 577.97 L 170.48 578.13 L 172.98 579.65 L 174.05 580.71 L 174.83 581.48 L 176.74 582.84 L 178.68 583.76 L 179.11 583.96 L 179.67 584.22 L 180.28 583.91 L 181.86 582.98 L 182.81 582.03 L 184.37 580.99 L 185.39 581.26 L 190.47 583.13 L 192.48 584.04 L 193.29 584.27 L 193.85 582.68 L 194.20 582.21 L 195.36 581.40 L 198.20 579.90 L 198.38 579.81 L 199.09 579.61 L 199.78 579.49 L 201.22 579.64 L 202.27 579.83 L 204.35 581.51 L 205.10 583.17 L 206.10 584.79 L 208.19 587.99 L 210.90 591.05 L 211.38 590.93 L 214.74 590.09 L 214.99 590.04 L 215.33 590.14 L 215.68 590.55 L 216.49 592.08 L 216.71 592.92 L 216.72 593.30 L 216.74 593.91 L 216.83 594.76 L 216.92 594.73 L 217.64 594.55 L 217.88 594.49 L 218.34 594.37 L 218.53 594.32 L 219.16 594.08 L 219.64 593.90 L 220.71 593.09 L 222.03 592.04 L 222.33 591.80 L 223.06 591.06 L 222.42 590.47 L 223.36 587.96 L 226.48 585.92 L 227.65 585.51 L 228.29 585.44 L 229.25 585.36 L 233.99 585.30 L 234.87 585.34 L 235.41 585.40 L 235.82 585.44 L 244.49 587.54 L 247.35 588.64 L 250.23 589.86 L 250.65 590.08 L 252.24 590.81 L 253.04 591.12 L 254.71 591.76 L 254.76 591.78 L 255.22 591.91 L 254.39 593.57 L 254.37 593.58 L 253.38 594.23 L 252.96 594.50 L 248.18 595.44 L 242.42 596.97 L 241.21 597.86 L 240.91 598.14 L 240.53 599.13 L 240.62 599.26 L 242.98 602.68 L 243.29 602.83 L 244.20 603.58 L 245.44 605.65 L 245.65 606.01 L 246.06 606.86 L 246.31 607.40 L 246.57 608.08 L 247.82 613.15 L 247.58 613.62 L 247.50 613.74 L 247.12 614.35 L 246.44 615.45 L 244.90 617.54 L 240.01 619.85 L 234.81 619.39 L 230.59 617.45 L 230.48 617.83 L 230.31 618.66 L 230.11 619.89 L 229.16 621.38 L 229.00 621.63 L 228.80 621.94 L 228.19 622.35 L 227.95 622.44 L 226.44 622.25 L 221.91 622.74 L 219.83 623.97 L 219.87 624.45 L 219.50 624.96 L 218.53 625.73 L 218.35 625.86 L 218.33 625.86 L 217.60 625.83 L 216.59 625.51 L 214.39 625.00 L 214.28 624.98 L 209.17 624.30 L 206.96 624.29 L 202.47 622.20 L 198.61 620.30 L 198.56 620.27 L 197.93 619.95 L 197.73 619.89 L 197.09 619.68 L 196.23 619.68 L 196.02 619.69 L 194.54 619.83 L 193.63 619.98 L 192.77 620.11 L 192.71 620.12 L 191.64 620.24 L 189.71 619.50 L 186.84 622.09 L 186.51 622.39 L 182.52 628.03 L 182.44 628.21 L 182.22 628.64 L 182.19 628.71 L 181.61 630.53 L 180.54 631.77 L 178.49 633.28 L 177.03 633.44 L 176.15 636.75 L 175.72 638.36 L 175.33 641.23 L 174.46 647.14 L 174.26 648.47 L 173.91 649.89 L 173.14 651.89 L 172.27 654.19 L 171.94 655.35 L 171.23 658.38 L 171.03 658.44 L 167.86 658.22 L 166.52 657.86 L 158.60 655.76 L 157.24 655.12 L 156.37 654.72 L 155.08 654.12 L 151.28 652.36 L 150.33 651.97 L 143.22 649.05 L 142.00 648.79 L 135.39 647.40 L 132.41 647.28 L 129.65 647.18 L 126.38 647.06 L 122.77 646.93 L 120.54 646.42 L 118.72 646.01 L 115.70 645.32 L 102.67 644.40 L 97.62 644.11 L 94.06 642.91 L 92.88 642.52 L 85.45 642.39 L 64.37 642.37 L 55.66 642.41 L 53.19 642.33 L 49.40 643.42 L 44.90 641.39 L 44.82 640.52 L 44.78 639.62 L 44.73 633.88 L 44.71 630.49 L 44.86 628.26 L 45.72 624.07 L 46.74 622.02 L 47.36 620.90 L 47.94 620.11 L 48.46 619.65 L 49.08 619.11 L 49.22 618.97 L 49.78 618.38 L 50.02 618.13 L 51.63 616.16 L 51.88 615.78 L 52.47 614.57 L 53.25 612.51 L 53.48 611.88 L 55.03 606.06 L 60.94 594.64 L 62.72 591.26 L 63.30 590.42 L 63.33 590.37 L 63.87 589.74 L 64.19 589.43 L 64.47 589.15 L 65.00 588.60 L 65.25 588.19 L 65.73 587.40 L 66.94 583.78 L 67.02 583.53 L 67.25 582.51 L 66.98 579.05 L 66.96 577.64 L 71.19 577.00 L 72.11 576.86 L 74.58 576.79 L 78.98 576.48 L 81.59 573.15 L 82.05 571.48 L 82.52 570.14 L 82.66 569.80 L 82.68 569.75 L 83.36 568.59 L 88.98 562.07 L 89.63 561.50 L 91.07 560.63 L 92.57 558.85 L 94.08 555.61 L 94.75 553.31 L 94.70 552.71 L 94.63 551.48 L 94.77 548.86 L 94.81 548.59 L 98.47 547.52 L 102.71 546.51 L 103.17 546.07 L 104.29 543.99 L 104.53 543.42 L 104.42 540.92 L 104.74 539.41 L 106.79 540.33 L 107.11 540.47 L 107.31 540.50 L 108.65 540.33 L 108.74 540.25 L 108.89 540.00 L 108.91 539.94 L 108.91 539.89 L 108.91 539.89 L 108.80 539.68 L 108.68 539.55 L 109.33 538.17 L 110.22 537.52 L 113.65 535.78 L 116.39 535.15 L 123.81 534.38 L 124.50 534.54 L 124.56 534.54 L 125.11 534.56 L 126.69 533.53 L 127.14 533.18 L 127.51 532.29 L 127.86 531.46 L 127.99 531.18 L 128.54 529.91 L 129.20 529.55 L 130.41 529.44 L 134.40 529.59 L 139.23 530.04 L 140.54 529.92 L 142.15 529.68 L 142.73 529.33 L 143.79 528.69 L 144.72 528.13 L 145.72 527.53 L 146.21 525.67 L 146.69 522.86 L 147.19 519.79 L 147.64 518.69 L 149.50 519.11 L 150.49 520.00 L 151.99 520.52 L 153.11 520.84 L 156.10 520.93 L 157.46 521.58 L 159.59 522.91 L 161.72 524.58 L 168.02 524.79 L 170.89 525.13 L 174.73 526.30 L 177.52 527.43 L 178.98 528.19 L 179.62 528.70 L 179.77 528.82 Z" id="달성군"/>
<path d="M 502.90 417.96 L 504.07 421.19 L 510.34 423.90 L 512.80 424.62 L 515.38 425.27 L 518.35 425.68 L 519.60 425.72 L 526.62 426.51 L 532.32 427.24 L 539.71 429.15 L 540.38 429.58 L 540.84 430.17 L 542.35 430.35 L 547.86 433.64 L 548.64 434.21 L 550.04 435.55 L 551.24 437.57 L 553.95 441.24 L 556.13 441.84 L 556.38 442.03 L 557.25 442.68 L 559.04 444.65 L 559.30 445.13 L 559.63 445.74 L 560.40 447.81 L 560.63 447.97 L 559.63 449.53 L 558.19 451.06 L 558.11 451.10 L 558.03 451.14 L 556.58 451.86 L 556.31 452.25 L 555.90 452.84 L 555.35 455.37 L 555.08 458.28 L 556.99 460.44 L 557.77 460.91 L 558.02 461.07 L 558.41 461.30 L 561.68 462.47 L 562.51 463.08 L 563.63 463.89 L 564.16 465.11 L 564.53 466.56 L 565.67 468.78 L 566.86 469.73 L 569.05 471.05 L 570.87 471.76 L 573.19 472.28 L 574.18 472.54 L 576.52 473.38 L 577.27 474.09 L 577.66 474.66 L 577.84 474.94 L 576.73 479.88 L 575.10 483.52 L 573.84 488.90 L 573.40 492.44 L 573.28 492.61 L 573.11 492.85 L 572.65 493.36 L 571.78 493.96 L 570.71 494.28 L 570.66 494.29 L 569.48 494.90 L 567.43 496.15 L 566.95 496.73 L 566.63 497.13 L 566.52 497.27 L 566.18 497.69 L 566.06 497.91 L 566.31 498.05 L 567.83 498.89 L 568.82 499.44 L 570.12 501.44 L 572.82 506.42 L 572.62 507.14 L 572.58 508.86 L 574.79 512.71 L 574.94 513.04 L 575.38 514.01 L 575.31 514.26 L 575.00 515.34 L 570.83 520.53 L 569.12 522.83 L 570.71 523.64 L 568.08 526.50 L 566.96 528.81 L 567.33 531.42 L 567.21 532.25 L 566.29 533.54 L 564.82 533.54 L 566.24 535.52 L 567.87 537.05 L 568.16 537.32 L 568.80 537.85 L 569.91 538.78 L 571.47 541.13 L 573.62 544.45 L 573.64 544.50 L 573.78 544.97 L 574.07 546.00 L 575.86 547.20 L 578.19 548.23 L 582.48 549.17 L 583.07 549.71 L 586.02 550.61 L 586.26 550.62 L 586.69 550.63 L 587.98 550.66 L 591.89 552.57 L 591.95 552.60 L 592.37 552.84 L 592.51 552.92 L 592.59 552.96 L 594.24 554.83 L 595.07 556.07 L 595.80 557.32 L 598.48 561.96 L 599.43 563.93 L 598.71 564.22 L 596.67 565.04 L 595.38 566.27 L 594.96 566.90 L 594.89 567.33 L 594.80 567.88 L 594.72 568.39 L 595.68 574.35 L 596.20 577.24 L 596.78 579.51 L 600.42 585.50 L 602.14 589.99 L 601.74 595.41 L 601.27 596.75 L 600.48 598.20 L 598.65 601.02 L 596.69 602.90 L 597.82 605.42 L 602.02 607.21 L 602.11 607.26 L 602.12 607.27 L 602.18 607.33 L 602.34 607.71 L 602.29 607.82 L 602.21 607.95 L 599.77 611.84 L 599.65 612.01 L 599.57 612.11 L 599.52 612.16 L 598.87 612.87 L 598.71 613.01 L 598.61 613.07 L 597.99 613.38 L 600.39 618.02 L 600.39 618.16 L 600.38 618.67 L 600.38 618.98 L 599.59 619.43 L 598.94 619.72 L 598.25 620.02 L 597.68 620.27 L 597.35 620.41 L 597.09 620.52 L 596.83 620.64 L 595.97 621.03 L 595.53 621.23 L 595.36 621.31 L 595.32 621.33 L 594.71 621.62 L 593.86 622.14 L 593.50 622.41 L 593.46 622.45 L 593.42 622.50 L 593.12 622.84 L 590.64 625.95 L 589.86 626.96 L 589.37 627.78 L 587.40 630.48 L 587.22 630.67 L 586.97 630.77 L 582.69 632.06 L 580.00 632.84 L 579.48 632.97 L 579.16 633.13 L 579.03 633.20 L 573.19 637.05 L 571.72 638.08 L 570.34 638.76 L 569.93 638.96 L 569.49 639.17 L 569.37 639.23 L 568.24 639.37 L 567.91 639.41 L 567.72 639.43 L 567.41 639.40 L 567.08 639.37 L 565.99 639.28 L 564.12 639.08 L 563.25 638.64 L 562.39 638.19 L 562.26 638.13 L 562.16 638.08 L 561.81 637.89 L 559.51 636.23 L 556.12 634.25 L 551.58 631.89 L 550.06 630.73 L 550.51 630.43 L 547.82 627.76 L 537.18 626.70 L 535.27 626.14 L 534.47 626.64 L 533.76 626.74 L 532.05 626.75 L 531.79 626.75 L 531.56 626.75 L 531.44 626.75 L 531.01 626.74 L 529.07 626.75 L 528.69 626.89 L 528.64 626.91 L 527.47 627.48 L 520.93 630.45 L 517.79 631.21 L 511.70 631.02 L 509.13 629.95 L 504.05 629.75 L 499.25 629.65 L 492.65 629.52 L 491.79 629.58 L 491.58 629.59 L 490.81 629.40 L 490.60 629.34 L 485.57 627.75 L 484.84 627.34 L 483.80 626.61 L 483.21 626.04 L 482.65 625.38 L 482.57 624.57 L 482.94 623.66 L 482.36 619.23 L 481.22 617.46 L 480.19 615.71 L 479.92 615.25 L 479.72 614.71 L 479.04 613.63 L 478.78 613.30 L 478.62 613.12 L 477.98 612.41 L 476.90 611.20 L 472.18 609.69 L 471.88 610.51 L 471.07 610.79 L 470.53 610.98 L 463.73 611.66 L 463.65 611.64 L 462.02 611.39 L 461.84 611.36 L 460.16 611.14 L 458.61 610.78 L 458.60 610.78 L 456.19 609.90 L 455.48 609.51 L 454.02 608.71 L 451.88 605.84 L 451.35 606.15 L 447.48 606.95 L 446.70 606.92 L 446.56 606.91 L 446.50 606.90 L 446.38 606.88 L 445.74 606.78 L 445.45 606.70 L 445.14 606.61 L 444.93 606.53 L 444.72 606.44 L 444.53 606.35 L 444.21 606.17 L 443.25 605.53 L 442.25 604.92 L 441.53 604.51 L 440.99 604.22 L 440.88 604.18 L 440.19 603.96 L 439.85 603.89 L 439.57 603.90 L 436.21 604.63 L 430.75 606.55 L 430.59 606.35 L 430.55 606.30 L 430.12 606.52 L 428.76 607.27 L 427.95 607.72 L 427.63 607.90 L 425.99 608.81 L 423.82 610.01 L 422.70 610.64 L 422.56 610.71 L 422.01 611.02 L 421.82 611.12 L 419.05 611.86 L 417.91 612.17 L 416.36 612.58 L 416.13 612.64 L 414.05 613.96 L 409.71 618.54 L 409.04 619.23 L 408.71 619.56 L 408.40 619.87 L 404.40 619.61 L 404.36 619.60 L 391.60 618.57 L 391.53 618.57 L 386.27 618.15 L 386.00 618.13 L 385.49 617.01 L 384.27 613.36 L 383.81 612.41 L 382.86 610.50 L 380.13 609.06 L 379.88 608.95 L 376.12 607.29 L 374.25 606.33 L 374.51 605.47 L 374.78 605.35 L 375.02 605.23 L 376.26 604.70 L 377.10 604.34 L 377.89 604.00 L 379.25 602.98 L 380.42 601.72 L 381.39 600.51 L 381.74 599.70 L 385.29 595.24 L 385.34 595.24 L 385.54 595.21 L 386.32 594.94 L 386.55 594.78 L 386.72 594.34 L 386.93 593.68 L 387.03 593.22 L 387.08 593.00 L 387.36 592.43 L 387.57 592.05 L 388.27 591.03 L 388.89 590.29 L 389.00 590.17 L 393.23 587.26 L 396.56 585.22 L 401.45 587.18 L 405.18 589.15 L 410.55 584.18 L 409.51 581.86 L 405.98 576.32 L 404.99 574.58 L 404.84 573.41 L 404.33 571.11 L 404.16 570.55 L 403.89 570.06 L 403.72 569.80 L 403.52 569.51 L 403.37 569.28 L 403.39 569.10 L 403.41 568.91 L 403.50 568.22 L 404.07 566.92 L 404.43 565.95 L 404.79 565.35 L 405.04 564.94 L 405.22 564.74 L 405.39 564.55 L 405.96 564.01 L 407.08 563.00 L 407.22 562.88 L 408.83 561.34 L 410.79 558.83 L 411.07 558.11 L 411.24 557.14 L 411.37 555.96 L 411.48 553.44 L 411.47 552.25 L 410.98 546.97 L 410.77 546.31 L 410.69 546.07 L 410.61 545.81 L 410.46 544.71 L 410.34 543.26 L 410.26 542.00 L 410.25 541.56 L 410.19 539.82 L 410.08 539.19 L 409.60 538.25 L 409.29 537.73 L 406.16 534.91 L 405.41 534.87 L 404.54 534.83 L 404.52 534.83 L 403.72 534.93 L 404.32 534.71 L 404.67 534.57 L 405.21 534.01 L 405.22 534.00 L 405.18 532.95 L 404.73 531.84 L 401.18 527.93 L 400.24 526.77 L 400.46 525.26 L 401.95 521.74 L 402.14 521.58 L 402.34 519.59 L 401.98 513.68 L 401.26 513.22 L 400.88 512.99 L 399.77 512.62 L 398.88 512.51 L 398.48 512.59 L 397.42 512.79 L 397.24 512.68 L 397.15 512.62 L 396.87 509.57 L 397.22 504.37 L 398.41 501.18 L 399.82 499.80 L 401.35 498.81 L 401.69 498.60 L 401.72 498.57 L 401.89 496.56 L 401.89 496.44 L 399.61 493.05 L 399.56 493.00 L 398.36 492.29 L 398.15 492.21 L 397.62 492.00 L 395.66 491.03 L 395.07 489.35 L 395.97 488.12 L 396.36 487.25 L 396.66 486.56 L 396.37 486.15 L 396.23 485.95 L 396.20 485.91 L 393.07 482.68 L 390.16 480.54 L 390.12 480.51 L 389.68 480.17 L 389.24 479.74 L 389.37 477.81 L 389.59 477.50 L 390.26 476.59 L 391.41 475.19 L 391.48 475.07 L 391.50 475.03 L 391.31 474.09 L 390.52 472.45 L 390.16 471.94 L 390.03 471.75 L 389.76 471.59 L 388.71 471.07 L 387.85 470.70 L 382.44 466.02 L 381.93 464.71 L 381.07 463.65 L 380.58 463.27 L 380.33 463.08 L 379.71 462.60 L 376.51 460.36 L 375.85 459.92 L 371.15 457.57 L 369.25 456.91 L 367.15 456.67 L 366.88 456.63 L 368.07 455.28 L 373.13 449.43 L 376.76 445.13 L 383.02 440.08 L 384.80 438.71 L 385.42 437.14 L 386.13 435.10 L 386.66 433.19 L 387.18 431.30 L 389.04 431.34 L 391.78 431.85 L 393.79 431.81 L 396.31 431.30 L 396.54 430.88 L 396.93 429.85 L 397.55 429.58 L 398.43 429.45 L 399.96 429.30 L 406.59 430.23 L 406.97 430.03 L 409.64 428.76 L 412.76 427.63 L 413.63 427.56 L 415.99 427.40 L 417.18 427.40 L 418.18 427.31 L 418.67 427.26 L 420.36 426.80 L 421.46 425.52 L 421.45 425.50 L 422.38 425.64 L 424.62 425.78 L 426.80 425.44 L 426.82 425.44 L 427.36 425.52 L 430.72 426.75 L 432.95 427.72 L 433.66 428.28 L 435.68 429.28 L 436.52 429.64 L 436.70 429.72 L 439.75 428.66 L 440.81 427.40 L 441.34 426.77 L 447.19 426.16 L 450.82 426.09 L 450.83 426.09 L 456.05 425.76 L 457.90 425.20 L 458.05 425.02 L 459.76 422.98 L 461.10 422.28 L 463.86 421.43 L 468.75 421.51 L 475.55 421.35 L 478.44 419.82 L 478.67 419.70 L 479.40 419.19 L 488.87 419.55 L 500.29 417.61 L 502.23 417.16 L 502.90 417.96 Z" id="동구"/>
<path d="M 388.71 471.07 L 389.76 471.59 L 390.03 471.75 L 390.16 471.94 L 390.52 472.45 L 391.31 474.09 L 391.50 475.03 L 391.48 475.07 L 391.41 475.19 L 390.26 476.59 L 389.59 477.50 L 389.37 477.81 L 389.24 479.74 L 389.68 480.17 L 390.12 480.51 L 390.16 480.54 L 393.07 482.68 L 396.20 485.91 L 396.23 485.95 L 396.37 486.15 L 396.66 486.56 L 396.36 487.25 L 395.97 488.12 L 395.07 489.35 L 395.66 491.03 L 397.62 492.00 L 398.15 492.21 L 398.36 492.29 L 399.56 493.00 L 399.61 493.05 L 401.89 496.44 L 401.89 496.56 L 401.72 498.57 L 401.69 498.60 L 401.35 498.81 L 399.82 499.80 L 398.41 501.18 L 397.22 504.37 L 396.87 509.57 L 397.15 512.62 L 397.24 512.68 L 397.42 512.79 L 398.48 512.59 L 398.88 512.51 L 399.77 512.62 L 400.88 512.99 L 401.26 513.22 L 401.98 513.68 L 402.34 519.59 L 402.14 521.58 L 401.95 521.74 L 400.46 525.26 L 400.24 526.77 L 401.18 527.93 L 404.73 531.84 L 405.18 532.95 L 405.22 534.00 L 405.21 534.01 L 404.67 534.57 L 404.32 534.71 L 403.72 534.93 L 404.52 534.83 L 404.54 534.83 L 405.41 534.87 L 406.16 534.91 L 409.29 537.73 L 409.60 538.25 L 410.08 539.19 L 410.19 539.82 L 410.25 541.56 L 410.26 542.00 L 410.34 543.26 L 410.46 544.71 L 410.61 545.81 L 410.69 546.07 L 410.77 546.31 L 410.98 546.97 L 411.47 552.25 L 411.48 553.44 L 411.37 555.96 L 411.24 557.14 L 411.07 558.11 L 410.79 558.83 L 408.83 561.34 L 407.22 562.88 L 407.08 563.00 L 405.96 564.01 L 405.39 564.55 L 405.22 564.74 L 405.04 564.94 L 404.79 565.35 L 404.43 565.95 L 404.07 566.92 L 403.50 568.22 L 403.41 568.91 L 403.39 569.10 L 403.37 569.28 L 403.52 569.51 L 403.72 569.80 L 403.89 570.06 L 404.16 570.55 L 404.33 571.11 L 404.84 573.41 L 404.99 574.58 L 405.98 576.32 L 409.51 581.86 L 410.55 584.18 L 405.18 589.15 L 401.45 587.18 L 396.56 585.22 L 393.23 587.26 L 389.00 590.17 L 388.89 590.29 L 388.27 591.03 L 387.57 592.05 L 387.36 592.43 L 387.08 593.00 L 387.03 593.22 L 386.93 593.68 L 386.72 594.34 L 386.55 594.78 L 386.32 594.94 L 385.54 595.21 L 385.34 595.24 L 385.29 595.24 L 381.74 599.70 L 381.39 600.51 L 380.42 601.72 L 379.25 602.98 L 377.89 604.00 L 377.10 604.34 L 376.26 604.70 L 375.02 605.23 L 374.78 605.35 L 374.51 605.47 L 374.25 606.33 L 376.12 607.29 L 379.88 608.95 L 377.26 609.70 L 376.62 609.88 L 375.05 610.30 L 374.99 610.31 L 374.00 610.45 L 373.73 610.48 L 373.65 610.49 L 373.05 610.56 L 371.37 610.63 L 371.32 610.63 L 370.72 610.62 L 369.93 610.52 L 369.29 610.36 L 366.25 609.56 L 359.19 608.44 L 356.81 608.71 L 356.60 607.90 L 356.24 607.70 L 354.44 607.37 L 348.63 606.37 L 348.06 606.31 L 346.88 606.10 L 346.92 605.84 L 340.63 604.78 L 334.59 603.71 L 337.20 595.62 L 334.20 594.45 L 333.68 594.25 L 333.59 594.21 L 328.82 592.47 L 328.41 592.33 L 326.66 592.05 L 325.66 591.91 L 325.40 591.93 L 317.42 590.85 L 316.13 590.81 L 309.25 589.82 L 307.35 589.59 L 300.13 588.67 L 298.21 588.42 L 297.96 588.37 L 297.73 588.32 L 297.57 588.27 L 297.35 588.19 L 297.23 588.15 L 297.12 588.10 L 297.09 588.09 L 296.99 588.04 L 296.96 588.02 L 296.94 588.01 L 296.91 587.99 L 296.80 587.92 L 296.50 587.73 L 296.30 587.54 L 296.15 587.40 L 295.80 587.05 L 292.69 584.01 L 292.68 584.00 L 292.64 583.96 L 293.36 583.18 L 294.49 582.18 L 294.77 582.01 L 292.74 579.62 L 284.66 582.69 L 282.90 583.00 L 282.01 583.15 L 280.83 583.35 L 280.66 583.40 L 279.39 583.82 L 279.10 583.91 L 278.24 584.19 L 276.55 584.75 L 276.35 584.93 L 275.27 585.89 L 273.48 587.49 L 273.24 587.89 L 273.21 588.11 L 273.20 588.21 L 273.20 588.25 L 273.17 588.55 L 273.05 589.09 L 272.81 589.74 L 271.44 591.96 L 271.22 592.30 L 270.44 593.37 L 270.05 593.91 L 269.73 594.34 L 267.57 595.22 L 267.22 595.29 L 266.90 595.34 L 266.45 595.42 L 258.33 594.63 L 255.22 591.91 L 254.76 591.78 L 254.71 591.76 L 253.04 591.12 L 252.24 590.81 L 250.65 590.08 L 250.23 589.86 L 247.35 588.64 L 244.49 587.54 L 235.82 585.44 L 235.41 585.40 L 234.87 585.34 L 233.99 585.30 L 229.25 585.36 L 228.29 585.44 L 227.65 585.51 L 226.48 585.92 L 223.36 587.96 L 223.54 587.63 L 224.77 580.88 L 224.76 575.97 L 224.33 573.51 L 226.17 568.14 L 230.83 562.93 L 235.73 560.75 L 235.98 560.74 L 236.64 560.71 L 241.77 558.73 L 248.73 553.84 L 249.93 552.47 L 249.92 550.86 L 249.75 550.19 L 250.07 549.73 L 253.44 546.44 L 255.08 545.46 L 256.46 544.80 L 257.48 544.35 L 257.91 544.17 L 259.12 544.22 L 259.87 540.56 L 259.98 539.29 L 260.16 538.45 L 260.28 538.02 L 260.68 537.13 L 260.80 536.89 L 265.24 529.09 L 266.14 528.35 L 265.98 527.43 L 266.06 526.51 L 266.14 526.10 L 267.18 524.08 L 266.61 519.56 L 265.87 518.92 L 264.45 514.60 L 265.41 513.84 L 265.05 510.81 L 264.80 509.66 L 263.86 509.20 L 263.21 507.96 L 263.16 507.83 L 263.78 504.72 L 264.02 503.82 L 264.09 503.58 L 264.36 503.03 L 264.94 501.77 L 265.32 500.93 L 265.91 499.19 L 266.07 498.53 L 266.32 497.45 L 266.34 497.22 L 266.34 497.22 L 264.33 493.87 L 263.35 493.36 L 259.77 491.80 L 259.03 488.75 L 258.91 488.30 L 258.04 485.02 L 256.53 481.02 L 255.66 479.59 L 254.58 474.64 L 256.40 467.63 L 257.04 467.58 L 264.21 468.62 L 270.61 471.99 L 272.44 472.61 L 275.14 473.39 L 277.84 474.36 L 278.82 474.98 L 279.20 475.43 L 283.00 482.81 L 283.28 484.71 L 283.20 486.34 L 283.70 487.24 L 287.43 491.00 L 289.51 491.52 L 291.53 492.61 L 293.61 493.76 L 294.59 490.60 L 297.33 482.85 L 297.79 479.31 L 297.88 478.93 L 298.90 478.26 L 301.03 477.54 L 303.68 477.34 L 305.68 477.79 L 310.15 477.21 L 311.57 476.12 L 311.57 476.00 L 311.54 474.52 L 322.04 469.85 L 330.48 469.62 L 334.44 470.11 L 337.37 471.12 L 347.56 468.39 L 351.78 466.19 L 351.56 462.79 L 356.25 461.15 L 359.59 460.43 L 362.78 459.82 L 366.18 459.24 L 366.88 456.63 L 367.15 456.67 L 369.25 456.91 L 371.15 457.57 L 375.85 459.92 L 376.51 460.36 L 379.71 462.60 L 380.33 463.08 L 380.58 463.27 L 381.07 463.65 L 381.93 464.71 L 382.44 466.02 L 387.85 470.70 L 388.71 471.07 Z" id="북구"/>
<path d="M 317.42 590.85 L 325.40 591.93 L 325.66 591.91 L 326.66 592.05 L 328.41 592.33 L 328.82 592.47 L 333.59 594.21 L 333.68 594.25 L 334.20 594.45 L 337.20 595.62 L 334.59 603.71 L 331.24 603.13 L 331.56 603.73 L 331.61 603.87 L 331.63 603.94 L 331.62 607.14 L 330.09 607.65 L 329.88 607.70 L 329.81 607.73 L 329.77 607.75 L 329.76 607.76 L 329.59 607.88 L 329.53 607.96 L 329.51 607.98 L 329.50 608.00 L 328.14 610.58 L 328.06 610.82 L 328.04 610.88 L 328.04 610.97 L 328.11 611.48 L 328.19 611.91 L 329.96 613.53 L 330.75 613.48 L 331.64 613.38 L 333.04 612.89 L 333.22 612.78 L 333.43 612.65 L 333.55 612.55 L 333.83 612.26 L 334.19 615.60 L 333.62 616.40 L 333.47 616.68 L 333.45 616.72 L 333.05 617.12 L 332.45 617.70 L 331.30 618.58 L 331.03 618.78 L 330.83 618.93 L 330.80 618.95 L 330.07 619.39 L 329.97 619.45 L 329.94 619.47 L 329.73 619.59 L 328.45 620.40 L 327.47 621.05 L 327.09 621.30 L 327.07 621.32 L 325.67 622.36 L 325.76 623.05 L 325.79 623.21 L 325.88 623.71 L 326.32 626.08 L 326.32 626.10 L 316.95 628.43 L 315.42 628.74 L 303.67 632.08 L 303.42 632.15 L 303.25 632.20 L 301.63 632.73 L 296.63 634.49 L 287.96 637.62 L 287.90 637.42 L 283.44 635.27 L 281.30 635.68 L 281.28 635.68 L 278.93 634.97 L 276.40 634.07 L 275.87 631.75 L 265.98 631.78 L 266.41 629.46 L 265.33 627.97 L 263.09 628.01 L 262.86 628.01 L 262.14 628.01 L 261.60 628.00 L 259.99 627.98 L 259.17 627.97 L 257.55 627.94 L 257.23 627.75 L 257.18 627.72 L 255.94 625.99 L 255.89 625.85 L 257.64 624.01 L 257.18 623.60 L 253.35 620.58 L 251.24 620.27 L 250.86 620.23 L 249.04 620.32 L 244.90 617.54 L 246.44 615.45 L 247.12 614.35 L 247.50 613.74 L 247.58 613.62 L 247.82 613.15 L 246.57 608.08 L 246.31 607.40 L 246.06 606.86 L 245.65 606.01 L 245.44 605.65 L 244.20 603.58 L 243.29 602.83 L 242.98 602.68 L 240.62 599.26 L 240.53 599.13 L 240.91 598.14 L 241.21 597.86 L 242.42 596.97 L 248.18 595.44 L 252.96 594.50 L 253.38 594.23 L 254.37 593.58 L 254.39 593.57 L 255.22 591.91 L 258.33 594.63 L 266.45 595.42 L 266.90 595.34 L 267.22 595.29 L 267.57 595.22 L 269.73 594.34 L 270.05 593.91 L 270.44 593.37 L 271.22 592.30 L 271.44 591.96 L 272.81 589.74 L 273.05 589.09 L 273.17 588.55 L 273.20 588.25 L 273.20 588.21 L 273.21 588.11 L 273.24 587.89 L 273.48 587.49 L 275.27 585.89 L 276.35 584.93 L 276.55 584.75 L 278.24 584.19 L 279.10 583.91 L 279.39 583.82 L 280.66 583.40 L 280.83 583.35 L 282.01 583.15 L 282.90 583.00 L 284.66 582.69 L 292.74 579.62 L 294.77 582.01 L 294.49 582.18 L 293.36 583.18 L 292.64 583.96 L 292.68 584.00 L 292.69 584.01 L 295.80 587.05 L 296.15 587.40 L 296.30 587.54 L 296.50 587.73 L 296.80 587.92 L 296.91 587.99 L 296.94 588.01 L 296.96 588.02 L 296.99 588.04 L 297.09 588.09 L 297.12 588.10 L 297.23 588.15 L 297.35 588.19 L 297.57 588.27 L 297.73 588.32 L 297.96 588.37 L 298.21 588.42 L 300.13 588.67 L 307.35 589.59 L 309.25 589.82 L 316.13 590.81 L 317.42 590.85 Z" id="서구"/>
<path d="M 444.93 606.53 L 445.14 606.61 L 445.45 606.70 L 445.74 606.78 L 446.38 606.88 L 446.50 606.90 L 446.56 606.91 L 446.70 606.92 L 447.48 606.95 L 451.35 606.15 L 451.88 605.84 L 454.02 608.71 L 455.48 609.51 L 456.19 609.90 L 458.60 610.78 L 458.61 610.78 L 460.16 611.14 L 461.84 611.36 L 462.02 611.39 L 463.65 611.64 L 463.73 611.66 L 470.53 610.98 L 471.07 610.79 L 471.88 610.51 L 472.18 609.69 L 476.90 611.20 L 477.98 612.41 L 478.62 613.12 L 478.78 613.30 L 479.04 613.63 L 479.72 614.71 L 479.92 615.25 L 480.19 615.71 L 481.22 617.46 L 482.36 619.23 L 482.94 623.66 L 482.57 624.57 L 482.65 625.38 L 483.21 626.04 L 483.80 626.61 L 484.84 627.34 L 485.57 627.75 L 490.60 629.34 L 490.81 629.40 L 491.58 629.59 L 491.79 629.58 L 492.65 629.52 L 499.25 629.65 L 504.05 629.75 L 509.13 629.95 L 511.70 631.02 L 517.79 631.21 L 520.93 630.45 L 527.47 627.48 L 528.64 626.91 L 528.69 626.89 L 529.07 626.75 L 531.01 626.74 L 531.44 626.75 L 531.56 626.75 L 531.79 626.75 L 532.05 626.75 L 533.76 626.74 L 534.47 626.64 L 535.27 626.14 L 537.18 626.70 L 547.82 627.76 L 550.51 630.43 L 550.06 630.73 L 549.33 630.61 L 548.87 630.45 L 548.22 630.38 L 547.91 630.40 L 546.30 630.57 L 546.21 630.60 L 544.58 631.83 L 545.90 633.85 L 547.35 634.47 L 548.01 634.68 L 548.37 634.92 L 549.90 636.01 L 549.93 636.08 L 549.93 636.09 L 549.91 636.17 L 550.26 639.94 L 551.67 643.84 L 552.18 644.91 L 552.34 645.87 L 552.07 648.48 L 552.04 648.67 L 551.45 651.27 L 550.71 652.03 L 548.66 654.40 L 548.25 655.44 L 548.24 656.76 L 548.27 656.85 L 548.32 656.95 L 548.51 657.21 L 548.70 657.43 L 548.90 657.64 L 549.02 657.81 L 549.96 659.38 L 549.92 659.50 L 549.91 659.54 L 549.79 659.86 L 549.69 660.07 L 548.46 660.59 L 545.26 661.84 L 545.15 661.87 L 544.98 661.91 L 544.85 661.91 L 544.82 661.91 L 544.61 661.63 L 544.47 661.41 L 543.92 660.64 L 543.79 660.56 L 543.76 660.55 L 543.71 660.52 L 543.67 660.50 L 542.90 660.12 L 542.62 660.10 L 541.95 660.07 L 541.09 660.35 L 539.41 661.67 L 535.69 664.02 L 534.68 664.64 L 530.06 668.55 L 529.56 668.99 L 529.01 669.58 L 528.74 669.87 L 528.23 670.50 L 528.22 670.58 L 528.21 670.68 L 528.19 670.83 L 528.17 670.92 L 527.41 671.34 L 526.10 672.58 L 525.71 673.04 L 525.69 673.29 L 525.68 677.36 L 525.76 677.69 L 525.84 678.02 L 526.45 679.74 L 527.04 680.24 L 527.25 680.42 L 528.89 681.29 L 531.04 682.69 L 532.66 684.23 L 533.22 684.77 L 533.67 685.20 L 533.99 686.09 L 534.06 687.00 L 534.07 688.08 L 534.10 688.18 L 535.20 691.74 L 536.74 696.20 L 537.84 697.02 L 539.28 699.55 L 538.29 699.83 L 528.58 703.10 L 528.46 703.16 L 525.00 705.53 L 524.97 705.56 L 524.91 705.70 L 522.45 709.04 L 521.57 709.25 L 519.28 709.91 L 518.87 710.13 L 517.46 710.89 L 517.38 710.94 L 514.54 713.15 L 514.51 713.19 L 514.34 713.41 L 514.22 713.58 L 514.14 714.12 L 514.13 714.77 L 514.09 715.19 L 513.99 715.31 L 513.37 715.72 L 509.93 716.70 L 508.53 716.41 L 507.06 715.44 L 506.18 714.52 L 505.58 713.46 L 503.72 713.46 L 502.77 713.76 L 500.71 714.98 L 500.49 715.40 L 500.39 715.84 L 500.31 716.69 L 500.21 717.00 L 499.56 718.05 L 499.23 718.44 L 498.58 718.95 L 497.80 719.15 L 496.44 719.48 L 496.01 719.58 L 494.91 719.61 L 487.91 722.57 L 487.89 722.60 L 486.17 721.69 L 482.15 718.72 L 479.10 717.73 L 476.55 715.90 L 473.36 715.79 L 467.99 714.76 L 467.67 714.41 L 466.99 713.71 L 461.10 712.35 L 458.19 711.70 L 456.22 711.56 L 455.30 711.54 L 449.54 711.52 L 444.81 710.65 L 443.36 709.91 L 442.43 708.84 L 441.49 705.86 L 438.91 705.73 L 434.60 706.39 L 431.78 706.76 L 428.81 706.92 L 426.17 706.73 L 425.22 705.98 L 421.40 705.09 L 416.69 704.91 L 414.89 705.00 L 412.44 705.28 L 411.51 705.64 L 411.51 705.65 L 408.75 706.53 L 408.27 706.15 L 406.76 704.87 L 405.16 703.49 L 404.83 703.32 L 404.56 703.20 L 403.76 702.95 L 403.08 702.81 L 399.74 702.12 L 396.83 702.25 L 389.88 705.29 L 378.66 703.85 L 372.56 702.58 L 370.77 702.13 L 370.60 702.10 L 369.16 701.79 L 367.80 701.92 L 366.54 702.11 L 362.00 702.27 L 361.35 701.28 L 354.26 698.26 L 352.96 697.91 L 354.15 695.21 L 357.04 692.72 L 360.29 691.64 L 360.98 691.48 L 361.22 691.43 L 362.74 691.04 L 365.19 690.36 L 366.42 689.12 L 371.37 679.72 L 371.53 678.40 L 372.04 676.05 L 372.51 674.07 L 373.30 673.59 L 374.23 673.54 L 375.29 673.58 L 376.50 673.63 L 376.39 672.45 L 375.28 669.37 L 374.29 666.92 L 374.16 666.37 L 373.47 662.50 L 374.39 658.07 L 375.27 657.40 L 375.47 657.17 L 375.66 656.85 L 375.82 656.31 L 375.85 656.19 L 375.87 655.99 L 376.00 654.89 L 376.02 654.62 L 376.03 654.52 L 376.06 654.23 L 376.03 653.91 L 376.01 653.63 L 376.00 652.80 L 376.09 652.30 L 376.12 652.15 L 376.76 649.81 L 376.92 643.82 L 377.68 639.44 L 377.68 639.40 L 377.69 638.96 L 377.70 638.40 L 377.70 638.27 L 377.69 637.91 L 377.68 637.82 L 377.66 637.71 L 377.61 637.51 L 377.56 637.30 L 377.47 636.94 L 376.89 636.07 L 376.79 635.92 L 376.61 635.10 L 376.60 635.04 L 376.58 634.87 L 376.55 634.52 L 376.54 634.49 L 376.42 633.21 L 376.38 632.88 L 376.36 632.67 L 376.35 631.52 L 376.35 631.50 L 376.39 631.11 L 376.40 631.03 L 376.43 630.87 L 376.55 629.95 L 376.66 629.46 L 377.30 628.12 L 378.34 627.63 L 378.52 626.79 L 381.03 624.92 L 382.74 624.16 L 383.18 623.94 L 383.48 623.64 L 383.74 623.25 L 383.88 623.05 L 384.04 622.80 L 384.38 622.25 L 384.49 622.05 L 384.59 621.87 L 386.00 618.13 L 386.27 618.15 L 391.53 618.57 L 391.60 618.57 L 404.36 619.60 L 404.40 619.61 L 408.40 619.87 L 408.71 619.56 L 409.04 619.23 L 409.71 618.54 L 414.05 613.96 L 416.13 612.64 L 416.36 612.58 L 417.91 612.17 L 419.05 611.86 L 421.82 611.12 L 422.01 611.02 L 422.56 610.71 L 422.70 610.64 L 423.82 610.01 L 425.99 608.81 L 427.63 607.90 L 427.95 607.72 L 428.76 607.27 L 430.12 606.52 L 430.55 606.30 L 430.59 606.35 L 430.75 606.55 L 436.21 604.63 L 439.57 603.90 L 439.85 603.89 L 440.19 603.96 L 440.88 604.18 L 440.99 604.22 L 441.53 604.51 L 442.25 604.92 L 443.25 605.53 L 444.21 606.17 L 444.53 606.35 L 444.72 606.44 L 444.93 606.53 Z" id="수성구"/>
<path d="M 356.60 607.90 L 356.81 608.71 L 359.19 608.44 L 366.25 609.56 L 369.29 610.36 L 369.93 610.52 L 370.72 610.62 L 371.32 610.63 L 371.37 610.63 L 373.05 610.56 L 373.65 610.49 L 373.73 610.48 L 374.00 610.45 L 374.99 610.31 L 375.05 610.30 L 376.62 609.88 L 377.26 609.70 L 379.88 608.95 L 380.13 609.06 L 382.86 610.50 L 383.81 612.41 L 384.27 613.36 L 385.49 617.01 L 386.00 618.13 L 384.59 621.87 L 384.49 622.05 L 384.38 622.25 L 384.04 622.80 L 383.88 623.05 L 383.74 623.25 L 383.48 623.64 L 383.18 623.94 L 382.74 624.16 L 381.03 624.92 L 378.52 626.79 L 378.34 627.63 L 377.30 628.12 L 376.66 629.46 L 376.55 629.95 L 376.43 630.87 L 376.40 631.03 L 376.39 631.11 L 376.35 631.50 L 376.35 631.52 L 376.36 632.67 L 376.38 632.88 L 376.42 633.21 L 376.54 634.49 L 376.55 634.52 L 376.58 634.87 L 376.60 635.04 L 376.61 635.10 L 376.79 635.92 L 376.89 636.07 L 368.71 635.69 L 367.64 635.67 L 365.46 635.56 L 361.77 635.37 L 358.73 634.19 L 356.85 634.01 L 356.72 634.00 L 346.55 633.82 L 341.29 634.28 L 339.27 634.46 L 326.95 629.59 L 326.78 629.52 L 326.63 628.02 L 326.32 626.10 L 326.32 626.08 L 325.88 623.71 L 325.79 623.21 L 325.76 623.05 L 325.67 622.36 L 327.07 621.32 L 327.09 621.30 L 327.47 621.05 L 328.45 620.40 L 329.73 619.59 L 329.94 619.47 L 329.97 619.45 L 330.07 619.39 L 330.80 618.95 L 330.83 618.93 L 331.03 618.78 L 331.30 618.58 L 332.45 617.70 L 333.05 617.12 L 333.45 616.72 L 333.47 616.68 L 333.62 616.40 L 334.19 615.60 L 333.83 612.26 L 333.55 612.55 L 333.43 612.65 L 333.22 612.78 L 333.04 612.89 L 331.64 613.38 L 330.75 613.48 L 329.96 613.53 L 328.19 611.91 L 328.11 611.48 L 328.04 610.97 L 328.04 610.88 L 328.06 610.82 L 328.14 610.58 L 329.50 608.00 L 329.51 607.98 L 329.53 607.96 L 329.59 607.88 L 329.76 607.76 L 329.77 607.75 L 329.81 607.73 L 329.88 607.70 L 330.09 607.65 L 331.62 607.14 L 331.63 603.94 L 331.61 603.87 L 331.56 603.73 L 331.24 603.13 L 334.59 603.71 L 340.63 604.78 L 346.92 605.84 L 346.88 606.10 L 348.06 606.31 L 348.63 606.37 L 354.44 607.37 L 356.24 607.70 L 356.60 607.90 Z" id="중구"/>
<path d="M 184.29 25.85 L 185.57 26.32 L 185.98 26.26 L 187.44 26.02 L 188.18 25.44 L 190.44 25.44 L 191.93 26.21 L 192.48 26.54 L 192.92 26.94 L 194.35 28.23 L 197.04 30.19 L 202.95 31.58 L 205.99 31.69 L 208.90 31.14 L 208.95 31.14 L 209.92 31.15 L 211.78 31.15 L 218.85 31.27 L 221.87 33.20 L 223.79 34.73 L 224.36 35.18 L 224.43 35.23 L 228.00 34.93 L 229.61 34.49 L 230.66 33.40 L 230.69 33.37 L 235.09 33.44 L 235.10 33.45 L 236.00 34.67 L 236.46 35.02 L 237.40 35.69 L 242.66 36.53 L 244.28 36.21 L 244.66 36.13 L 245.10 36.04 L 245.27 36.01 L 246.64 36.89 L 250.55 42.43 L 251.79 44.32 L 252.39 44.27 L 252.70 44.24 L 258.34 42.55 L 261.44 41.84 L 261.77 42.79 L 263.85 43.29 L 265.16 43.44 L 272.37 45.26 L 275.62 46.60 L 275.54 46.80 L 275.29 48.46 L 275.88 49.10 L 278.32 50.03 L 278.57 50.36 L 279.01 50.97 L 282.16 56.96 L 282.35 60.77 L 285.23 69.38 L 285.46 69.48 L 286.59 70.00 L 287.98 70.30 L 293.66 70.61 L 295.55 69.78 L 296.01 69.33 L 296.35 69.13 L 297.04 68.78 L 297.52 68.57 L 302.13 68.14 L 303.73 68.63 L 304.66 69.05 L 305.04 69.22 L 306.02 69.98 L 307.01 70.27 L 307.17 70.30 L 309.74 70.00 L 310.55 69.88 L 311.87 69.66 L 313.77 69.06 L 314.05 68.90 L 314.42 68.70 L 314.44 68.69 L 316.57 67.12 L 317.16 66.65 L 317.74 65.98 L 317.92 64.85 L 320.37 62.47 L 323.70 62.65 L 324.44 62.72 L 327.17 63.10 L 333.87 64.09 L 338.37 64.80 L 345.71 66.10 L 350.86 68.16 L 351.23 70.31 L 352.27 73.25 L 352.59 73.82 L 352.67 73.85 L 352.68 73.86 L 352.70 73.87 L 354.84 74.77 L 355.24 74.93 L 355.30 74.94 L 356.20 75.11 L 356.45 75.16 L 358.73 75.49 L 361.05 75.64 L 363.60 75.18 L 364.25 74.87 L 366.03 73.98 L 369.10 73.87 L 371.65 74.54 L 376.01 75.81 L 377.72 77.19 L 383.57 78.18 L 384.07 78.01 L 384.94 77.90 L 384.95 77.90 L 391.06 79.30 L 392.14 79.71 L 392.84 80.04 L 392.96 80.10 L 393.82 80.58 L 395.63 81.60 L 397.66 82.85 L 398.88 83.61 L 399.64 84.34 L 399.71 84.47 L 401.31 85.26 L 404.11 86.10 L 406.30 86.45 L 407.34 86.56 L 408.65 86.56 L 409.80 86.98 L 414.92 90.89 L 415.50 91.42 L 416.02 91.94 L 416.06 97.78 L 414.85 99.43 L 413.15 99.63 L 413.07 99.64 L 413.04 99.64 L 413.44 105.04 L 413.56 105.23 L 415.35 106.40 L 417.43 109.09 L 417.28 109.12 L 415.22 109.56 L 413.90 111.63 L 414.28 112.50 L 414.69 113.72 L 414.72 113.83 L 410.32 115.12 L 410.03 115.14 L 409.25 115.17 L 405.44 117.49 L 407.23 120.53 L 408.57 122.01 L 410.36 124.22 L 410.74 124.96 L 411.62 131.28 L 411.61 131.88 L 411.47 132.38 L 410.57 133.12 L 410.51 133.17 L 407.66 134.57 L 405.63 135.18 L 405.40 135.25 L 405.39 135.26 L 407.90 136.35 L 410.38 137.49 L 409.78 141.59 L 408.47 144.74 L 407.97 145.21 L 406.94 146.18 L 404.31 146.94 L 404.28 146.95 L 403.99 147.83 L 404.38 148.25 L 406.55 150.49 L 407.71 151.23 L 408.17 152.41 L 408.12 153.37 L 408.60 154.98 L 409.40 157.45 L 409.43 157.53 L 413.68 158.91 L 415.39 159.46 L 416.04 158.70 L 416.80 157.81 L 417.28 157.25 L 417.97 156.43 L 418.97 155.10 L 419.07 154.85 L 419.48 153.84 L 419.59 153.64 L 419.65 153.55 L 419.85 153.23 L 422.45 151.11 L 426.94 147.47 L 431.34 145.84 L 433.69 146.39 L 435.16 146.31 L 438.93 144.63 L 438.98 144.49 L 439.29 143.67 L 439.27 143.57 L 441.25 142.17 L 444.96 140.49 L 445.71 140.67 L 446.68 140.92 L 447.07 141.05 L 448.62 141.66 L 448.98 141.87 L 448.86 142.17 L 448.97 143.63 L 452.19 143.69 L 454.70 148.52 L 457.20 153.66 L 459.37 156.58 L 459.57 156.74 L 463.10 158.20 L 463.27 158.19 L 463.37 158.12 L 463.41 158.09 L 463.53 157.94 L 463.86 157.55 L 464.82 155.37 L 465.12 154.30 L 465.95 153.05 L 467.34 151.99 L 470.47 150.86 L 477.11 149.11 L 480.12 148.99 L 486.62 150.41 L 487.18 150.84 L 487.26 150.99 L 487.34 151.14 L 487.70 151.67 L 487.82 151.84 L 489.88 152.50 L 491.96 152.00 L 492.63 151.40 L 492.77 151.24 L 492.97 151.01 L 494.12 150.23 L 495.77 150.05 L 498.81 151.63 L 500.45 153.10 L 501.14 154.34 L 501.11 154.89 L 501.29 155.06 L 503.67 156.54 L 504.24 156.89 L 501.97 158.39 L 499.06 162.83 L 499.06 162.92 L 499.05 163.67 L 499.04 165.15 L 499.16 165.97 L 499.20 165.98 L 502.87 167.12 L 503.31 167.23 L 504.61 167.10 L 506.58 167.22 L 507.35 167.34 L 510.39 169.39 L 511.67 169.97 L 517.25 170.63 L 522.54 169.85 L 522.57 169.83 L 522.69 169.75 L 524.45 168.60 L 529.12 168.00 L 532.00 168.42 L 532.01 168.46 L 532.04 168.53 L 532.76 170.34 L 532.78 171.16 L 535.53 171.10 L 538.80 169.66 L 541.02 167.79 L 542.16 167.45 L 544.99 167.43 L 546.49 168.70 L 547.67 169.81 L 547.73 169.84 L 548.04 170.03 L 552.29 169.18 L 553.24 168.79 L 556.05 167.36 L 558.89 167.89 L 561.18 168.37 L 564.10 169.37 L 564.13 169.39 L 566.02 170.24 L 568.02 171.69 L 569.47 173.63 L 571.12 175.02 L 572.26 175.69 L 573.97 175.03 L 577.63 173.60 L 578.78 172.02 L 580.77 166.57 L 584.61 164.60 L 589.91 164.34 L 590.71 166.45 L 591.13 166.98 L 592.23 167.71 L 592.23 167.72 L 593.78 168.38 L 594.87 168.81 L 594.93 168.81 L 596.89 168.83 L 597.77 168.85 L 597.80 168.87 L 601.40 172.00 L 601.41 172.04 L 601.52 172.53 L 602.49 173.24 L 606.56 176.13 L 607.64 176.73 L 607.80 176.65 L 607.98 176.56 L 610.14 175.48 L 611.18 174.95 L 611.77 174.79 L 614.56 174.68 L 614.81 174.67 L 624.02 175.60 L 628.02 176.03 L 630.17 176.35 L 633.75 176.91 L 636.65 177.97 L 638.82 178.77 L 640.24 179.30 L 642.48 179.79 L 643.64 180.04 L 646.66 179.87 L 646.74 179.75 L 648.86 176.29 L 649.52 174.75 L 650.09 172.78 L 653.00 170.90 L 653.95 170.27 L 655.12 168.18 L 656.17 166.29 L 656.36 165.95 L 657.16 163.07 L 655.83 161.71 L 655.77 161.68 L 654.92 161.19 L 653.94 159.58 L 653.98 159.56 L 656.46 158.91 L 659.18 157.88 L 657.61 154.26 L 657.45 154.11 L 658.74 153.45 L 665.65 153.44 L 667.44 153.30 L 671.07 153.00 L 671.75 152.73 L 672.28 152.38 L 673.79 151.18 L 675.14 149.86 L 676.65 148.47 L 678.56 147.11 L 685.00 144.00 L 688.30 142.86 L 688.32 142.86 L 689.47 142.58 L 690.27 142.39 L 693.50 142.82 L 699.03 145.64 L 701.62 147.19 L 703.32 147.20 L 708.58 146.38 L 715.49 145.75 L 724.58 148.62 L 731.88 151.93 L 735.88 154.44 L 737.31 156.00 L 737.32 156.00 L 738.76 156.74 L 740.23 157.13 L 742.11 156.61 L 745.29 157.49 L 752.54 158.91 L 756.26 159.38 L 759.12 163.42 L 760.73 166.09 L 761.02 166.55 L 761.04 166.56 L 763.00 167.72 L 763.32 167.91 L 763.54 168.03 L 765.01 168.01 L 765.25 167.99 L 766.86 167.83 L 770.47 167.74 L 772.13 167.93 L 772.99 168.10 L 773.96 168.29 L 774.02 168.33 L 773.18 170.20 L 772.90 171.46 L 772.88 172.53 L 773.08 173.71 L 773.25 174.64 L 773.02 176.33 L 773.01 176.37 L 772.40 176.77 L 771.45 177.40 L 770.68 179.38 L 770.70 179.40 L 770.90 179.51 L 772.67 180.56 L 774.71 181.77 L 775.16 183.30 L 775.83 186.03 L 777.20 187.72 L 778.83 188.00 L 784.33 190.04 L 784.90 190.38 L 786.07 191.92 L 786.49 194.91 L 786.34 195.70 L 786.02 198.15 L 786.05 198.18 L 787.16 199.13 L 787.74 199.31 L 788.41 199.52 L 790.82 201.25 L 792.09 202.17 L 791.79 206.22 L 791.36 207.30 L 792.96 209.77 L 794.93 211.79 L 796.95 213.59 L 800.00 216.70 L 794.90 219.53 L 793.13 220.23 L 788.52 226.41 L 785.45 237.29 L 785.69 238.73 L 786.94 241.11 L 787.82 242.36 L 785.30 243.67 L 770.73 243.82 L 769.26 243.81 L 765.68 243.75 L 762.40 243.50 L 761.42 243.14 L 760.95 242.97 L 756.55 241.24 L 756.20 241.08 L 755.86 241.00 L 753.04 240.36 L 750.59 241.04 L 749.41 241.37 L 747.32 241.30 L 744.58 240.78 L 743.84 240.48 L 739.52 240.74 L 739.20 240.86 L 738.23 242.09 L 736.27 244.65 L 736.32 245.09 L 736.32 245.12 L 736.32 245.12 L 736.32 245.14 L 736.31 245.17 L 736.23 245.28 L 736.05 245.43 L 731.90 248.62 L 729.82 249.92 L 729.66 249.95 L 728.03 250.33 L 727.70 251.17 L 727.55 251.76 L 727.46 252.13 L 727.35 252.55 L 727.64 255.05 L 729.37 258.02 L 730.11 258.44 L 730.25 258.51 L 731.29 260.60 L 732.07 263.29 L 732.11 265.11 L 732.02 265.14 L 731.87 265.21 L 730.53 265.76 L 728.86 268.44 L 729.49 270.22 L 730.00 271.30 L 730.40 272.11 L 730.80 272.93 L 730.52 273.72 L 730.46 273.88 L 729.69 275.31 L 728.66 277.16 L 728.05 277.41 L 724.25 278.76 L 721.58 279.23 L 720.02 279.75 L 718.35 281.79 L 714.28 283.79 L 711.94 283.84 L 710.35 284.13 L 709.55 284.27 L 709.48 284.28 L 709.47 284.32 L 709.28 284.78 L 709.07 285.27 L 708.71 286.14 L 707.82 288.94 L 708.14 289.75 L 708.32 291.16 L 707.74 292.43 L 703.68 297.82 L 703.45 298.04 L 702.07 299.30 L 702.07 299.30 L 702.01 299.27 L 700.68 298.64 L 698.73 298.23 L 698.00 298.32 L 697.95 298.34 L 696.82 298.84 L 696.03 299.49 L 694.60 300.16 L 687.87 301.59 L 686.89 301.51 L 686.45 301.77 L 682.51 304.48 L 681.06 306.38 L 679.34 311.27 L 678.42 312.62 L 674.36 313.39 L 671.30 315.57 L 671.29 315.62 L 671.17 316.06 L 671.01 316.72 L 670.99 316.73 L 670.03 317.12 L 666.58 318.00 L 665.68 318.20 L 664.31 318.26 L 663.01 318.32 L 661.66 318.43 L 661.02 318.51 L 660.24 319.20 L 658.65 320.64 L 657.55 321.36 L 657.51 321.39 L 652.29 322.32 L 652.24 322.28 L 651.09 321.11 L 648.72 320.16 L 647.36 320.02 L 641.96 320.46 L 641.52 320.51 L 640.44 320.64 L 635.72 316.72 L 632.58 315.18 L 631.88 314.85 L 624.95 311.90 L 619.57 308.66 L 619.02 308.60 L 616.02 308.46 L 610.15 307.19 L 609.09 306.73 L 607.30 304.73 L 605.27 302.70 L 603.32 302.24 L 601.83 302.10 L 594.49 306.34 L 593.39 307.18 L 593.18 307.34 L 591.74 308.88 L 591.69 308.93 L 587.54 313.63 L 586.09 315.59 L 582.00 314.26 L 581.04 313.90 L 581.13 313.80 L 583.31 311.11 L 584.61 308.79 L 584.66 305.42 L 584.36 304.50 L 582.60 303.88 L 583.01 300.64 L 582.92 299.65 L 582.85 299.24 L 582.82 299.05 L 575.70 292.42 L 573.98 291.06 L 573.12 290.76 L 572.84 293.34 L 572.57 295.45 L 571.77 300.10 L 571.22 300.57 L 571.21 300.58 L 566.10 303.82 L 560.09 307.42 L 558.91 309.36 L 556.47 311.17 L 552.09 312.94 L 549.93 313.36 L 549.68 313.28 L 546.37 312.61 L 546.08 312.67 L 545.25 313.02 L 543.01 314.27 L 542.94 314.32 L 542.14 315.22 L 540.90 316.62 L 540.83 316.71 L 540.79 316.78 L 542.28 318.74 L 544.84 320.28 L 547.63 321.32 L 548.69 323.22 L 550.39 326.79 L 550.55 329.18 L 546.99 334.48 L 543.98 337.97 L 542.38 339.31 L 541.07 339.65 L 539.03 339.88 L 536.36 338.68 L 531.38 337.16 L 529.76 336.96 L 528.07 336.80 L 527.67 337.17 L 526.32 340.27 L 524.72 346.33 L 524.72 348.05 L 522.53 350.69 L 519.22 355.64 L 518.76 356.54 L 518.52 356.77 L 516.65 358.08 L 515.49 358.62 L 514.71 358.71 L 514.70 358.71 L 514.62 358.75 L 513.29 360.54 L 512.48 362.70 L 512.08 363.93 L 512.76 366.96 L 513.47 369.21 L 513.53 369.33 L 514.27 370.90 L 514.52 371.46 L 515.05 373.22 L 514.91 374.55 L 514.88 374.81 L 514.14 378.91 L 511.93 382.67 L 509.58 385.27 L 508.28 386.43 L 507.66 386.85 L 507.30 387.01 L 506.46 387.39 L 506.01 387.60 L 504.48 389.06 L 503.65 390.03 L 503.13 391.58 L 504.34 392.42 L 506.26 395.88 L 507.80 398.92 L 508.08 399.82 L 508.21 400.24 L 507.81 402.84 L 507.49 404.76 L 506.97 405.85 L 504.87 409.58 L 504.46 410.13 L 502.45 412.67 L 501.84 413.46 L 501.49 413.72 L 501.07 414.04 L 500.07 414.42 L 500.13 414.49 L 502.23 417.16 L 500.29 417.61 L 488.87 419.55 L 479.40 419.19 L 478.67 419.70 L 478.44 419.82 L 475.55 421.35 L 468.75 421.51 L 463.86 421.43 L 461.10 422.28 L 459.76 422.98 L 458.05 425.02 L 457.90 425.20 L 456.05 425.76 L 450.83 426.09 L 450.82 426.09 L 447.19 426.16 L 441.34 426.77 L 440.81 427.40 L 439.75 428.66 L 436.70 429.72 L 436.52 429.64 L 435.68 429.28 L 433.66 428.28 L 432.95 427.72 L 430.72 426.75 L 427.36 425.52 L 426.82 425.44 L 426.80 425.44 L 424.62 425.78 L 422.38 425.64 L 421.45 425.50 L 419.21 422.35 L 415.70 416.96 L 414.01 415.87 L 413.54 415.57 L 412.18 414.74 L 407.72 412.75 L 403.64 411.05 L 402.12 410.75 L 400.16 410.35 L 394.52 407.43 L 392.60 405.88 L 392.84 405.37 L 393.11 404.80 L 393.17 404.65 L 392.93 403.48 L 392.38 402.07 L 392.34 395.88 L 394.17 388.88 L 394.31 388.39 L 396.77 385.95 L 399.28 383.34 L 401.59 379.04 L 401.84 378.20 L 401.49 377.56 L 401.14 376.92 L 400.92 375.62 L 402.25 372.84 L 403.19 371.02 L 403.80 368.76 L 403.56 365.30 L 403.43 364.83 L 403.22 364.24 L 402.74 363.56 L 402.62 362.94 L 402.11 359.91 L 402.22 359.18 L 402.32 358.91 L 404.01 358.52 L 405.06 357.36 L 407.28 353.91 L 408.44 349.55 L 406.79 348.46 L 403.28 346.90 L 402.56 345.09 L 402.63 343.16 L 404.80 340.53 L 406.50 338.07 L 406.50 338.05 L 406.34 336.72 L 406.26 336.23 L 404.74 335.07 L 402.01 333.41 L 398.43 331.57 L 397.34 331.14 L 396.31 332.97 L 395.32 334.53 L 394.60 334.95 L 392.91 335.53 L 391.27 335.83 L 386.89 336.10 L 381.23 335.82 L 373.30 336.69 L 365.59 337.98 L 360.41 338.39 L 356.99 339.02 L 356.56 339.42 L 356.20 340.20 L 355.64 343.16 L 355.37 345.30 L 355.79 347.45 L 356.73 349.93 L 352.20 355.44 L 348.96 355.52 L 347.31 355.44 L 341.16 354.43 L 337.87 350.43 L 335.90 348.74 L 331.34 350.38 L 331.19 350.70 L 330.96 351.81 L 330.99 352.33 L 329.41 354.27 L 327.05 355.72 L 326.46 355.88 L 325.39 355.96 L 321.47 357.50 L 320.68 357.91 L 320.15 358.52 L 319.65 359.12 L 319.16 359.74 L 318.29 360.45 L 316.37 361.57 L 315.78 361.80 L 315.52 361.91 L 315.37 361.97 L 314.91 361.32 L 314.80 360.96 L 314.70 360.59 L 314.63 358.09 L 313.24 354.81 L 311.34 351.83 L 309.60 349.25 L 306.96 346.46 L 306.93 345.79 L 306.90 345.16 L 306.93 343.67 L 308.95 336.38 L 311.05 331.59 L 312.81 327.58 L 313.10 326.37 L 314.19 321.09 L 313.70 319.92 L 313.61 319.72 L 312.81 318.31 L 312.52 316.77 L 311.79 312.73 L 311.79 312.57 L 311.89 311.83 L 311.92 311.58 L 311.89 311.54 L 311.85 311.48 L 311.40 310.84 L 311.25 310.61 L 309.16 308.57 L 307.94 308.01 L 307.49 308.02 L 306.43 308.04 L 305.68 307.87 L 305.36 307.57 L 305.09 307.22 L 304.81 306.12 L 304.87 305.17 L 305.00 304.99 L 306.59 303.70 L 307.46 302.10 L 307.88 300.32 L 308.19 292.62 L 305.90 291.11 L 304.67 290.62 L 304.63 289.23 L 304.97 287.22 L 305.14 287.04 L 305.92 286.20 L 305.95 286.11 L 306.27 284.27 L 306.28 284.20 L 305.88 283.10 L 305.75 282.81 L 304.86 281.60 L 303.24 279.97 L 302.67 279.50 L 302.66 279.49 L 300.77 279.07 L 298.89 279.18 L 298.34 279.29 L 297.35 279.37 L 292.74 276.53 L 289.16 271.18 L 289.42 270.50 L 289.72 268.60 L 289.74 268.49 L 289.10 267.56 L 288.68 267.04 L 288.51 266.82 L 286.50 266.08 L 283.27 263.97 L 283.27 262.37 L 283.94 261.31 L 285.37 259.45 L 287.32 257.31 L 289.50 253.00 L 287.26 251.62 L 286.38 251.52 L 285.55 251.43 L 284.77 251.47 L 284.10 251.49 L 283.13 251.33 L 282.89 251.14 L 282.64 250.84 L 283.27 247.98 L 284.60 244.66 L 284.12 239.18 L 282.83 236.38 L 280.00 233.15 L 276.77 232.54 L 274.63 232.18 L 274.01 231.28 L 272.68 227.55 L 271.50 224.99 L 270.22 223.43 L 270.21 223.42 L 270.18 223.40 L 270.55 222.78 L 270.69 222.55 L 273.13 219.83 L 276.52 216.71 L 277.13 216.57 L 278.79 217.51 L 279.02 217.64 L 279.52 217.93 L 279.78 218.07 L 280.76 218.55 L 282.23 219.02 L 282.48 219.02 L 285.22 218.85 L 286.83 218.55 L 288.19 218.10 L 289.64 215.68 L 290.06 214.57 L 290.46 213.49 L 290.42 211.00 L 290.31 209.84 L 290.16 208.44 L 290.46 207.27 L 290.69 206.51 L 291.55 204.88 L 294.49 201.42 L 294.01 201.13 L 293.27 200.70 L 290.23 200.25 L 286.87 200.27 L 282.56 198.57 L 278.45 195.73 L 275.29 191.84 L 273.77 189.49 L 273.32 188.31 L 271.87 186.11 L 271.21 185.32 L 270.81 184.84 L 267.57 181.13 L 265.51 178.83 L 264.43 177.74 L 264.42 177.73 L 264.29 177.68 L 261.65 176.62 L 260.39 176.11 L 260.03 175.97 L 256.37 174.67 L 249.04 171.93 L 246.44 170.06 L 244.06 169.20 L 242.72 169.86 L 241.99 170.17 L 241.51 170.30 L 238.88 170.65 L 237.23 170.58 L 234.03 171.54 L 233.99 171.65 L 233.71 172.32 L 233.68 172.43 L 233.42 173.67 L 233.09 175.68 L 233.06 175.76 L 233.02 175.84 L 231.60 178.99 L 230.78 180.77 L 230.37 181.65 L 230.08 181.92 L 230.03 181.94 L 228.05 182.49 L 226.31 185.11 L 225.73 186.10 L 225.05 187.23 L 224.07 188.36 L 221.22 190.72 L 218.67 191.38 L 217.14 191.51 L 215.09 191.69 L 213.86 190.76 L 213.39 190.08 L 213.25 188.45 L 213.38 186.67 L 213.51 184.81 L 213.32 184.17 L 208.91 176.71 L 208.68 176.71 L 205.36 176.78 L 204.31 176.33 L 203.85 176.14 L 202.78 174.93 L 202.28 174.36 L 201.53 172.74 L 200.50 170.44 L 201.20 166.51 L 201.29 166.01 L 201.65 162.97 L 200.38 159.03 L 198.69 155.07 L 197.84 154.22 L 194.78 152.86 L 192.45 151.56 L 192.16 150.39 L 192.83 149.39 L 193.45 148.69 L 194.02 147.67 L 194.55 145.54 L 194.53 144.69 L 194.17 144.04 L 188.08 138.70 L 186.54 138.33 L 185.05 138.19 L 183.06 139.16 L 182.98 139.23 L 182.67 139.37 L 182.31 139.52 L 181.74 139.32 L 181.40 139.17 L 179.94 138.49 L 179.93 137.53 L 180.23 136.93 L 181.30 136.26 L 181.91 135.91 L 182.56 135.55 L 183.31 135.29 L 183.95 135.00 L 184.51 134.60 L 188.02 131.47 L 188.70 130.68 L 188.76 130.60 L 188.85 130.38 L 189.16 129.61 L 189.08 128.77 L 188.93 128.29 L 187.88 126.16 L 186.91 126.37 L 186.82 126.29 L 186.56 126.15 L 184.54 125.57 L 179.79 124.77 L 178.16 124.67 L 175.02 126.59 L 174.25 127.65 L 174.29 128.88 L 168.20 132.24 L 167.31 132.25 L 166.58 132.26 L 165.62 132.27 L 163.06 131.84 L 163.03 131.80 L 162.58 131.38 L 162.05 130.87 L 161.99 130.81 L 160.78 131.38 L 156.57 133.79 L 154.18 135.71 L 152.90 136.25 L 151.11 135.78 L 150.40 135.82 L 148.75 136.31 L 141.90 138.98 L 141.74 139.29 L 141.24 140.30 L 140.60 140.78 L 137.89 142.50 L 136.65 142.74 L 131.54 143.65 L 130.92 143.61 L 130.01 143.55 L 129.66 143.33 L 129.11 142.99 L 128.53 143.06 L 127.56 143.27 L 124.03 146.50 L 123.32 147.16 L 120.51 144.27 L 118.69 141.26 L 118.35 139.71 L 118.38 137.95 L 118.50 135.40 L 117.53 134.11 L 117.32 133.88 L 116.73 133.22 L 113.70 128.99 L 113.70 128.96 L 113.34 126.76 L 113.30 126.63 L 113.19 126.40 L 112.83 125.65 L 110.47 124.32 L 107.17 123.02 L 103.08 122.69 L 102.81 122.88 L 102.27 123.24 L 100.23 123.29 L 100.06 123.21 L 97.79 122.17 L 97.05 120.51 L 97.39 117.63 L 94.54 114.41 L 88.61 110.27 L 88.60 110.22 L 88.26 107.46 L 88.76 105.76 L 88.87 105.50 L 90.19 102.37 L 92.21 101.87 L 92.13 100.83 L 92.07 100.09 L 92.03 99.55 L 90.75 97.28 L 87.90 96.05 L 86.23 94.31 L 89.95 93.62 L 91.63 92.32 L 92.67 91.52 L 94.07 88.62 L 93.25 85.57 L 92.79 82.77 L 92.81 82.64 L 92.83 82.54 L 93.36 80.75 L 93.72 80.26 L 95.43 77.91 L 97.45 76.30 L 100.02 73.95 L 100.79 73.12 L 101.13 71.32 L 101.00 70.26 L 99.47 68.55 L 97.49 67.02 L 93.68 64.73 L 90.32 64.06 L 89.19 63.73 L 82.38 60.55 L 81.89 60.30 L 78.80 56.53 L 77.36 54.62 L 77.30 54.51 L 77.55 54.16 L 77.61 54.06 L 78.34 53.08 L 81.84 49.89 L 82.31 48.97 L 82.06 48.32 L 81.29 47.70 L 81.02 46.83 L 80.69 45.72 L 82.59 42.50 L 86.02 38.89 L 86.62 38.64 L 87.84 38.12 L 90.87 38.26 L 91.19 38.41 L 92.12 38.86 L 92.14 38.88 L 102.73 38.51 L 105.75 36.15 L 108.48 33.43 L 108.48 33.41 L 108.50 32.89 L 108.51 32.29 L 108.52 32.02 L 108.53 31.51 L 108.56 31.07 L 108.57 31.06 L 108.62 31.02 L 108.83 30.85 L 109.53 30.36 L 110.71 29.72 L 112.48 29.29 L 113.61 29.71 L 114.02 29.97 L 114.81 30.98 L 116.49 31.11 L 118.24 30.04 L 118.28 29.96 L 118.82 28.89 L 118.91 22.01 L 118.85 20.91 L 118.52 18.89 L 117.84 18.31 L 117.37 17.97 L 118.20 17.11 L 118.46 16.93 L 120.50 15.63 L 123.14 15.32 L 124.28 14.64 L 125.17 14.11 L 127.68 12.01 L 129.39 8.79 L 130.44 6.20 L 137.09 0.06 L 140.34 0.00 L 142.69 0.44 L 142.63 1.39 L 142.73 2.44 L 143.19 2.96 L 153.13 5.91 L 157.99 6.74 L 160.57 7.00 L 162.07 7.17 L 165.67 8.33 L 166.13 8.97 L 169.14 13.33 L 169.18 16.71 L 169.01 20.11 L 169.82 20.51 L 170.32 20.76 L 175.50 21.54 L 176.15 21.57 L 177.43 21.59 L 177.76 21.60 L 180.35 23.29 L 184.29 25.85 Z" id="군위군"/>
</g>
</svg>